<?xml version="1.0" encoding="UTF-8"?>
<svg version="1.1" xmlns="http://www.w3.org/2000/svg" width="1536" height="1024">
<path d="M0 0 C506.88 0 1013.76 0 1536 0 C1536 337.92 1536 675.84 1536 1024 C1029.12 1024 522.24 1024 0 1024 C0 686.08 0 348.16 0 0 Z " fill="#009C6D" transform="translate(0,0)"/>
<path d="M0 0 C0.79390137 0.09651855 1.58780273 0.19303711 2.40576172 0.29248047 C45.29602648 5.74213022 87.16828282 22.42591342 122 48 C122.5676709 48.41604492 123.1353418 48.83208984 123.72021484 49.26074219 C141.97498287 62.7499086 159.10560945 77.98699964 173 96 C174.00294676 97.25207127 175.00692896 98.50331354 176.01171875 99.75390625 C188.0521019 114.9112605 197.91270386 131.4215299 206 149 C206.3619043 149.7842334 206.72380859 150.5684668 207.09667969 151.37646484 C213.13436193 164.60737891 217.95485611 178.03567634 222 192 C222.20463867 192.69335449 222.40927734 193.38670898 222.62011719 194.10107422 C235.84294634 239.61945206 234.23134617 291.56928564 222 337 C221.74234863 337.97098633 221.48469727 338.94197266 221.21923828 339.94238281 C210.41114745 379.93164041 190.10444053 417.27831596 162.04296875 447.7734375 C160.17040692 449.81427926 158.36170466 451.89463697 156.5625 454 C149.08435309 462.54399773 140.89674361 469.96945986 132 477 C130.92876942 477.87257203 129.85848912 478.74631172 128.7890625 479.62109375 C98.85634195 503.90777009 63.57915415 520.32408722 26.1875 529.25 C24.75168579 529.60118896 24.75168579 529.60118896 23.28686523 529.95947266 C3.79497061 534.39414492 -15.94488767 535.55645263 -35.875 535.4375 C-36.96496277 535.43445862 -38.05492554 535.43141724 -39.17791748 535.42828369 C-55.45663395 535.36125631 -71.08268304 534.67900251 -87 531 C-88.50723633 530.67056396 -88.50723633 530.67056396 -90.04492188 530.33447266 C-130.38009047 521.43478602 -169.18217942 503.50859698 -201 477 C-201.55429687 476.5472168 -202.10859375 476.09443359 -202.6796875 475.62792969 C-216.7063279 464.16260553 -230.02975334 451.44813282 -241 437 C-241.92670476 435.8135063 -242.85381655 434.62733044 -243.78125 433.44140625 C-286.39241516 378.39648241 -306.99742975 307.46519683 -298.98242188 238.05786133 C-298.67681602 235.70165019 -298.34179917 233.35122097 -298 231 C-297.87641113 230.09233887 -297.75282227 229.18467773 -297.62548828 228.24951172 C-289.79299979 171.67520997 -264.27823999 119.30083213 -225 78 C-224.46213867 77.43345703 -223.92427734 76.86691406 -223.37011719 76.28320312 C-215.68914009 68.25167884 -207.7265876 61.02215451 -198.82275391 54.37402344 C-196.93838415 52.9535529 -195.08355813 51.50005166 -193.23046875 50.0390625 C-156.32011473 21.22170036 -108.495591 3.10568865 -62 -1 C-60.9584375 -1.10957031 -59.916875 -1.21914062 -58.84375 -1.33203125 C-39.2905463 -3.11175246 -19.46072788 -2.39557024 0 0 Z " fill="#02996B" transform="translate(1036,243)"/>
<path d="M0 0 C1.04173874 0.00223572 1.04173874 0.00223572 2.10452271 0.0045166 C14.08451176 0.05047279 25.67622687 0.97550324 37.4375 3.3125 C38.15824707 3.44640137 38.87899414 3.58030273 39.62158203 3.71826172 C57.91509292 7.17421466 75.10381507 14.53664943 91.4375 23.3125 C92.5925 23.91449219 93.7475 24.51648438 94.9375 25.13671875 C109.62117272 33.0959368 122.45005856 43.76001653 134.4375 55.3125 C135.69240234 56.47265625 135.69240234 56.47265625 136.97265625 57.65625 C161.48118468 80.96071444 176.28723877 113.67757132 184.1875 146.0625 C184.38641846 146.8771875 184.58533691 147.691875 184.7902832 148.53125 C187.8715159 161.81320028 188.81472927 174.79898826 188.75 188.375 C188.74784485 189.18953644 188.7456897 190.00407288 188.74346924 190.84329224 C188.56650738 232.58941297 175.67153258 272.50589528 149.4375 305.3125 C148.77282715 306.1485376 148.77282715 306.1485376 148.09472656 307.00146484 C137.34258563 320.40433446 125.34372488 332.20753845 111.4375 342.3125 C110.86338379 342.73096191 110.28926758 343.14942383 109.69775391 343.58056641 C78.6101645 365.93049394 41.77604045 377.77428842 3.5625 377.6875 C2.70299744 377.68728851 1.84349487 377.68707703 0.95794678 377.68685913 C-12.88614503 377.65291728 -26.09157284 376.72438727 -39.5625 373.3125 C-40.30967285 373.13058105 -41.0568457 372.94866211 -41.82666016 372.76123047 C-88.03758795 361.2470848 -130.44356616 331.1589122 -155.56640625 290.54296875 C-174.23599856 259.43220324 -184.03184844 226.26666362 -183.9375 189.9375 C-183.93662384 189.10756531 -183.93574768 188.27763062 -183.93484497 187.42254639 C-183.88518994 173.08787794 -182.85539389 159.30967831 -179.5625 145.3125 C-179.33175781 144.32717285 -179.10101562 143.3418457 -178.86328125 142.32666016 C-171.12073573 110.59348915 -155.19174529 81.84546914 -132.5625 58.3125 C-132.07620117 57.79510254 -131.58990234 57.27770508 -131.08886719 56.74462891 C-97.353583 20.95634118 -49.2780335 -0.26372093 0 0 Z " fill="#00996C" transform="translate(998.5625,321.6875)"/>
<path d="M0 0 C0.93924316 0.16129395 1.87848633 0.32258789 2.84619141 0.48876953 C16.92020459 2.96072382 30.54389181 6.17807063 44 11 C44.96824707 11.341521 44.96824707 11.341521 45.95605469 11.68994141 C62.06593822 17.46020878 77.35903243 25.6820676 91 36 C91.90621094 36.68320312 92.81242187 37.36640625 93.74609375 38.0703125 C121.61281708 59.99159559 141.45896617 90.95874734 148 126 C148.89535071 133.52908549 148.89535071 133.52908549 146.96142578 136.70620728 C143.90275962 138.72376005 140.72348867 138.4168293 137.1796875 138.38818359 C135.98656952 138.39606903 135.98656952 138.39606903 134.76934814 138.40411377 C132.13769954 138.41732747 129.50665485 138.40857103 126.875 138.3984375 C125.04801314 138.40045785 123.22102706 138.40336895 121.39404297 138.40713501 C117.56404954 138.41156021 113.73426593 138.40512102 109.90429688 138.39111328 C104.99115295 138.37402125 100.07850064 138.38386139 95.16537476 138.40183067 C91.39245896 138.41266323 87.61966001 138.40922461 83.84674072 138.4014473 C82.03501325 138.39944382 80.22327521 138.40190971 78.41156006 138.40888596 C75.8808577 138.41649181 73.35095517 138.40490887 70.8203125 138.38818359 C70.0690509 138.39425629 69.31778931 138.40032898 68.54376221 138.40658569 C63.49233384 138.34463213 63.49233384 138.34463213 61.078125 136.6546936 C59.45142464 134.15805297 58.74457201 131.53132252 57.875 128.6875 C51.33615975 109.0297897 36.58385041 94.23822527 18.4375 84.8125 C3.41554254 77.31784949 -12.14464057 74.80433708 -28.80322266 74.75976562 C-30.96687588 74.75014725 -33.12954111 74.71910451 -35.29296875 74.6875 C-62.98300582 74.47639425 -87.94877833 84.78513346 -108.125 103.6875 C-117.48122402 113.53719575 -124.52292184 124.7865254 -130.13427734 137.10058594 C-130.94094222 138.87042597 -131.77603572 140.62723228 -132.61328125 142.3828125 C-140.20920071 158.98784575 -144.16289324 177.03756783 -147 195 C-147.11859375 195.73234863 -147.2371875 196.46469727 -147.359375 197.21923828 C-154.86136279 245.88168587 -147.39800799 301.50368326 -119.5390625 342.78515625 C-117.45194758 345.62290022 -115.29509753 348.32865697 -113 351 C-112.26136719 351.87527344 -111.52273438 352.75054688 -110.76171875 353.65234375 C-102.45429196 363.76493859 -102.45429196 363.76493859 -91.4375 370 C-90.633125 370 -89.82875 370 -89 370 C-86.95372088 366.93058132 -86.3606476 364.99330048 -86.39453125 361.3203125 C-87.47018249 357.19813937 -90.47649431 354.43256414 -93.34765625 351.39453125 C-95 349 -95 349 -95.1953125 346.62109375 C-93.32943101 342.52956931 -90.20771422 340.11420915 -86.8125 337.25 C-85.8215332 336.36634766 -85.8215332 336.36634766 -84.81054688 335.46484375 C-78.08605805 329.68961643 -78.08605805 329.68961643 -73 330 C-70.5078125 331.90625 -70.5078125 331.90625 -68.125 334.5 C-64.9396833 337.77662056 -64.9396833 337.77662056 -60.859375 339.44921875 C-58.78119244 339.17512774 -56.98027463 338.68395027 -55 338 C-53.58549253 337.63730578 -52.16879618 337.28303708 -50.75 336.9375 C-49.5125 336.628125 -48.275 336.31875 -47 336 C-45.68 336 -44.36 336 -43 336 C-42.89042969 334.80761719 -42.78085937 333.61523438 -42.66796875 332.38671875 C-42.50850701 330.82024165 -42.34831249 329.25383901 -42.1875 327.6875 C-42.11724609 326.90181641 -42.04699219 326.11613281 -41.97460938 325.30664062 C-41.89404297 324.54931641 -41.81347656 323.79199219 -41.73046875 323.01171875 C-41.66239014 322.31522217 -41.59431152 321.61872559 -41.52416992 320.90112305 C-40.84850473 318.45053858 -40.04814174 317.4983532 -38 316 C-35.85522461 315.61181641 -35.85522461 315.61181641 -33.40234375 315.6015625 C-32.51869141 315.59769531 -31.63503906 315.59382813 -30.72460938 315.58984375 C-29.80486328 315.60144531 -28.88511719 315.61304688 -27.9375 315.625 C-27.01388672 315.61339844 -26.09027344 315.60179687 -25.13867188 315.58984375 C-24.25630859 315.59371094 -23.37394531 315.59757812 -22.46484375 315.6015625 C-21.656521 315.60494629 -20.84819824 315.60833008 -20.01538086 315.61181641 C-19.35030518 315.73991699 -18.68522949 315.86801758 -18 316 C-15.64626599 319.53060101 -15.34221585 322.58595756 -14.875 326.6875 C-14.78863281 327.38939453 -14.70226562 328.09128906 -14.61328125 328.81445312 C-14.40173125 330.54211145 -14.199914 332.2709566 -14 334 C-12.05285791 334.73857114 -10.10492539 335.47515069 -8.15234375 336.19921875 C-6.40876635 336.84791815 -4.67201108 337.51493448 -2.9375 338.1875 C0.87419866 339.24179963 3.05231949 339.73600823 7 339 C9.47936544 336.80228365 11.63647737 334.4865752 13.7890625 331.96875 C16 330 16 330 18.359375 329.35546875 C22.41840911 330.34620932 24.7082969 332.92576303 27.625 335.8125 C28.19734375 336.35970703 28.7696875 336.90691406 29.359375 337.47070312 C30.91973304 338.96755822 32.46452627 340.4776698 34 342 C34.5578418 342.4959668 35.11568359 342.99193359 35.69042969 343.50292969 C37 345 37 345 36.9140625 347.87109375 C35.64182858 352.22604832 33.1977746 355.03321873 30.3984375 358.53515625 C28.75438785 360.91091263 28.75438785 360.91091263 29.16015625 363.6328125 C30.22513323 366.63456156 31.90158889 368.63082616 34 371 C41.46755931 370.13631431 46.31205406 364.14120741 50.9921875 358.671875 C64.68712763 340.29022202 65.94000098 318.80323071 66.5625 296.8125 C66.60581566 295.36913147 66.64943346 293.92577197 66.69335938 292.48242188 C66.79904858 288.98837827 66.90067582 285.49423102 67 282 C65.82458145 281.98969254 64.6491629 281.97938507 63.43812561 281.96876526 C52.38655841 281.87121017 41.33504976 281.76849356 30.28357792 281.66066074 C24.6012629 281.60538415 18.91894278 281.55195671 13.23657227 281.50268555 C7.75766291 281.45511169 2.27881832 281.40277169 -3.20001411 281.34705925 C-5.29527751 281.32660397 -7.39055868 281.30789626 -9.4858532 281.29092598 C-12.40982398 281.26695196 -15.33367111 281.23688822 -18.25756836 281.20532227 C-19.1329425 281.1995668 -20.00831665 281.19381134 -20.91021729 281.18788147 C-26.88594784 281.11405216 -26.88594784 281.11405216 -28 280 C-28.10474558 277.89405572 -28.13856457 275.78456234 -28.14526367 273.67602539 C-28.14862228 273.01584915 -28.1519809 272.35567291 -28.15544128 271.67549133 C-28.16497695 269.48286075 -28.1668957 267.29030631 -28.16796875 265.09765625 C-28.17117955 263.5792996 -28.17454349 262.06094327 -28.17805481 260.54258728 C-28.18405265 257.35561404 -28.18589404 254.16866794 -28.18530273 250.98168945 C-28.18520108 246.891304 -28.19885343 242.80109203 -28.21607494 238.71074772 C-28.22717571 235.57355444 -28.22922254 232.43640334 -28.22869301 229.29919243 C-28.22987603 227.7908614 -28.23431575 226.28252939 -28.24202538 224.77421761 C-28.25178662 222.66714341 -28.24896282 220.56044902 -28.24291992 218.45336914 C-28.24434494 217.25281387 -28.24576996 216.05225861 -28.24723816 214.81532288 C-28 212 -28 212 -26 210 C-23.02924442 209.74552441 -23.02924442 209.74552441 -19.13600159 209.73930359 C-18.42178777 209.73547804 -17.70757396 209.73165249 -16.9717173 209.72771102 C-14.56643892 209.71735068 -12.1613979 209.72137884 -9.75610352 209.7253418 C-8.0365578 209.72099699 -6.31701402 209.71581462 -4.59747314 209.70985413 C0.08223437 209.69642786 4.76186131 209.69588948 9.44158435 209.69841743 C13.34337394 209.6994847 17.24514706 209.69461002 21.14693314 209.689812 C30.34935134 209.67870423 39.55172872 209.67828652 48.75415039 209.68432617 C58.25858913 209.69036798 67.76287991 209.6780526 77.26729339 209.6567561 C85.41764124 209.63916283 93.56794189 209.63313515 101.71830803 209.63639385 C106.59046419 209.63821051 111.46251482 209.6355325 116.33465385 209.62167931 C120.91551794 209.60914251 125.49615075 209.61100552 130.07701111 209.62409019 C131.76087585 209.62646463 133.44475665 209.62369046 135.12860298 209.61546707 C137.42234642 209.60507061 139.71530353 209.61304212 142.00901794 209.6257782 C143.93673869 209.62552659 143.93673869 209.62552659 145.90340328 209.62526989 C149 210 149 210 150.91354752 211.35196114 C152.59435379 213.90157476 152.37402837 216.08432538 152.37231445 219.11010742 C152.37854324 220.37380661 152.38477203 221.6375058 152.39118958 222.9394989 C152.38248182 224.32815938 152.37316174 225.71681612 152.36328125 227.10546875 C152.36276152 228.54584248 152.36328358 229.98621693 152.36479187 231.42658997 C152.36470196 234.46231553 152.35426039 237.49777668 152.33618164 240.53344727 C152.31391463 244.34899499 152.31306009 248.16414607 152.31943417 251.97974014 C152.34144786 269.40251656 151.91092401 286.66271577 150 304 C149.85941162 305.30573975 149.71882324 306.61147949 149.57397461 307.95678711 C146.79298368 331.55684565 141.32580527 354.52753048 131 376 C130.67918457 376.67063477 130.35836914 377.34126953 130.02783203 378.03222656 C115.13187565 408.64118519 90.02737379 432.14520752 58 444 C50.09592909 446.55164028 50.09592909 446.55164028 46 446 C43.8671875 444.6875 43.8671875 444.6875 41.875 443 C38.89770846 440.370997 38.89770846 440.370997 35 440 C34.1533966 441.38782485 33.32324661 442.78569397 32.5 444.1875 C32.0359375 444.96480469 31.571875 445.74210937 31.09375 446.54296875 C29.82847285 449.3853235 29.49804276 450.9261095 30 454 C31.93188004 456.70547752 34.10611118 459.04771138 36.34765625 461.5 C38 464 38 464 38.078125 466.52734375 C36.60933538 469.89598081 34.59845909 471.3455444 31.6875 473.5625 C27.60456411 476.68329471 27.60456411 476.68329471 23.95703125 480.27734375 C22 482 22 482 19.56640625 482.52734375 C16.01861508 481.79834556 14.49179 480.09310261 11.9375 477.5625 C8.06114598 473.63497883 8.06114598 473.63497883 3 472 C0.19634841 472.69878246 -2.45676707 473.46232837 -5.1875 474.375 C-6.29254883 474.72691406 -6.29254883 474.72691406 -7.41992188 475.0859375 C-10.9903511 476.03261265 -10.9903511 476.03261265 -14 478 C-14.656649 481.38830883 -15.24745032 484.78010748 -15.80664062 488.18554688 C-16.78671875 493.78671875 -16.78671875 493.78671875 -19 496 C-22.3135576 496.44804715 -25.65959863 496.32409862 -29 496.3125 C-29.928125 496.32861328 -30.85625 496.34472656 -31.8125 496.36132812 C-32.699375 496.36197266 -33.58625 496.36261719 -34.5 496.36328125 C-35.3146875 496.36626221 -36.129375 496.36924316 -36.96875 496.37231445 C-37.97421875 496.1880188 -37.97421875 496.1880188 -39 496 C-41.43818936 492.34271595 -41.6716692 489.06712105 -42.125 484.8125 C-42.25455078 483.68811523 -42.25455078 483.68811523 -42.38671875 482.54101562 C-42.59838382 480.69482588 -42.80015464 478.84750656 -43 477 C-43.73605469 476.80664062 -44.47210937 476.61328125 -45.23046875 476.4140625 C-46.20628906 476.15367187 -47.18210937 475.89328125 -48.1875 475.625 C-49.15042969 475.36976563 -50.11335937 475.11453125 -51.10546875 474.8515625 C-54 474 -54 474 -56.61328125 472.8359375 C-59.39982264 471.85996392 -60.33096222 471.77538267 -63 473 C-65.5734248 475.28465766 -67.95701905 477.70856173 -70.3671875 480.1640625 C-73 482 -73 482 -75.90234375 482.14453125 C-80.07560903 480.60258077 -82.57314189 478.1696406 -85.6875 475.0625 C-86.81483704 473.96843283 -87.94368965 472.87592466 -89.07421875 471.78515625 C-89.56494873 471.29926025 -90.05567871 470.81336426 -90.5612793 470.31274414 C-92.17382228 468.77501834 -92.17382228 468.77501834 -95 467 C-94.28806265 462.03940424 -90.81707076 459.06920141 -87.6171875 455.4375 C-85.7981229 453.20718412 -85.7981229 453.20718412 -86.06640625 450.984375 C-87.202615 448.56933716 -88.54470446 446.44595951 -90.0625 444.25 C-90.61035156 443.45078125 -91.15820312 442.6515625 -91.72265625 441.828125 C-92.14417969 441.22484375 -92.56570313 440.6215625 -93 440 C-96.01534264 441.11012615 -97.91655879 441.9233243 -100.3125 444.125 C-103.86451419 446.60314944 -106.84074251 446.39585612 -111 446 C-113.85479337 445.42554104 -116.56184615 444.57482165 -119.3125 443.625 C-120.08303711 443.36170898 -120.85357422 443.09841797 -121.64746094 442.82714844 C-164.64361368 427.43046395 -197.42292944 390.82826688 -216.859375 350.48144531 C-220.37535201 342.83238917 -223.2741818 334.95968951 -226 327 C-226.27827637 326.18982422 -226.55655273 325.37964844 -226.84326172 324.54492188 C-249.9068964 256.00820663 -246.28568209 169.66660108 -214.0625 104.75 C-212.73338922 102.15306216 -211.37022412 99.57542362 -210 97 C-209.65888184 96.34580078 -209.31776367 95.69160156 -208.96630859 95.01757812 C-200.12272073 78.12949697 -188.64463899 63.30352301 -175 50 C-174.3915625 49.35804688 -173.783125 48.71609375 -173.15625 48.0546875 C-146.80897828 20.65734336 -108.94693847 5.77070495 -72 0 C-71.27006836 -0.11859375 -70.54013672 -0.2371875 -69.78808594 -0.359375 C-47.53537576 -3.822511 -22.19329118 -3.91923077 0 0 Z " fill="#F5F8F7" transform="translate(562,274)"/>
<path d="M0 0 C3.36063008 0.1232231 4.76067647 0.78608411 7.28125 3.0390625 C8.0134375 3.89242188 8.745625 4.74578125 9.5 5.625 C10.65822266 6.97078125 10.65822266 6.97078125 11.83984375 8.34375 C14.3870421 11.4759288 16.74424822 14.65275543 19 18 C23.63712641 16.55676913 26.63741933 13.8669489 30.0625 10.5625 C39.0991657 1.9771035 39.0991657 1.9771035 41.84423828 2.046875 C45.12490918 3.49735509 46.52683733 6.22272963 48.37109375 9.16015625 C48.97740379 10.0951017 48.97740379 10.0951017 49.59596252 11.04893494 C50.88762313 13.04652537 52.16259079 15.05418693 53.4375 17.0625 C54.29125142 18.38805716 55.14605843 19.71293508 56.00195312 21.03710938 C60.05630811 27.32340875 64.05654738 33.64351067 68 40 C73.03477014 39.36221977 77.37268465 37.88141134 82.06640625 36.05859375 C83.61909238 35.46927392 85.17182826 34.88008514 86.72460938 34.29101562 C89.15039613 33.3631688 91.57511406 32.43264222 93.9987793 31.49926758 C96.35203903 30.59533969 98.70895078 29.70151051 101.06640625 28.80859375 C101.78735977 28.52737167 102.50831329 28.2461496 103.25111389 27.95640564 C106.95449913 26.55853442 110.02805286 25.65210988 114 26 C116.14167088 30.6583425 116.99939299 35.42668674 117.9453125 40.4296875 C118.2074202 41.79252365 118.2074202 41.79252365 118.474823 43.18289185 C118.84203216 45.10044823 119.20665209 47.01850203 119.56884766 48.93701172 C120.12205481 51.85944145 120.68744921 54.77933203 121.25390625 57.69921875 C121.61011692 59.56756704 121.96560936 61.43605243 122.3203125 63.3046875 C122.48902863 64.17157196 122.65774475 65.03845642 122.83157349 65.93161011 C123.72300574 70.71151625 124.17637428 75.13781241 124 80 C124.66821274 79.9297612 125.33642548 79.8595224 126.02488708 79.78715515 C132.64992493 79.13189032 139.19255986 78.84007008 145.84765625 78.83203125 C146.8261705 78.82870285 147.80468475 78.82537445 148.81285095 78.82194519 C150.85724421 78.81692723 152.90164551 78.81453526 154.94604492 78.81469727 C158.08590729 78.8124835 161.2254327 78.79420061 164.36523438 78.77539062 C166.3593738 78.77246111 168.35351489 78.77047336 170.34765625 78.76953125 C171.28714615 78.76234573 172.22663605 78.75516022 173.19459534 78.74775696 C174.0598735 78.75083359 174.92515167 78.75391022 175.81665039 78.75708008 C176.57845108 78.75565506 177.34025177 78.75423004 178.12513733 78.75276184 C180 79 180 79 182 81 C182.01513672 83.17285156 182.01513672 83.17285156 181.6796875 85.890625 C181.49756714 87.40571655 181.49756714 87.40571655 181.31176758 88.95141602 C181.16763428 90.03994873 181.02350098 91.12848145 180.875 92.25 C180.73537842 93.35851318 180.59575684 94.46702637 180.4519043 95.60913086 C179.0337835 106.47881425 177.11759376 117.24702389 175 128 C176.49237183 127.96156982 176.49237183 127.96156982 178.01489258 127.92236328 C182.03543502 128.00069033 185.82274876 128.510936 189.76171875 129.2421875 C190.83133598 129.43483688 190.83133598 129.43483688 191.92256165 129.63137817 C193.4180829 129.90243071 194.91305104 130.17655159 196.4074707 130.45361328 C198.68999215 130.87546059 200.97462113 131.28403629 203.25976562 131.69140625 C204.71889437 131.95754301 206.17788404 132.22444365 207.63671875 132.4921875 C208.31594894 132.6131076 208.99517914 132.73402771 209.69499207 132.85861206 C213.08819712 133.49690249 216.01158277 134.24210751 219 136 C216.28356185 146.4795681 211.90952895 156.37449304 207.81665039 166.36938477 C206.85918207 168.71199532 205.90789485 171.05704631 204.95703125 173.40234375 C204.6602095 174.12107162 204.36338776 174.8397995 204.05757141 175.58030701 C202.85749118 178.54371758 202 180.77050244 202 184 C203.52753906 184.78310547 203.52753906 184.78310547 205.0859375 185.58203125 C213.17289653 189.7682672 221.15910111 194.11789428 229 198.75 C229.78294434 199.19706299 230.56588867 199.64412598 231.37255859 200.10473633 C236.58257742 203.23829838 236.58257742 203.23829838 238.29296875 206.359375 C237.83499528 210.48724256 235.71391885 213.18959198 233.3125 216.5 C232.81862793 217.1997998 232.32475586 217.89959961 231.81591797 218.62060547 C227.54492894 224.53665656 222.79474229 229.89508475 217.7265625 235.1328125 C215.00284651 237.99700668 212.49744004 240.93950075 210 244 C210.66644531 244.70382812 211.33289062 245.40765625 212.01953125 246.1328125 C219.15540493 253.74937472 225.63410108 261.73568065 232 270 C232.76441406 270.85722656 233.52882813 271.71445312 234.31640625 272.59765625 C236.31119862 275.44405371 236.3975067 276.59679618 236 280 C230.82493989 287.16507533 220.99079981 291.37227272 213.4375 295.6875 C212.13560171 296.4399495 210.83416609 297.19320013 209.53320312 297.94726562 C203.70229532 301.32169629 197.84970486 304.65830565 192 308 C192.38857178 309.23041016 192.77714355 310.46082031 193.17749023 311.72851562 C194.62502419 316.31847462 196.06347064 320.91124016 197.49926758 325.50488281 C198.12051057 327.48807537 198.74417568 329.47051095 199.37036133 331.45214844 C200.27291117 334.30986394 201.16655363 337.17023896 202.05859375 340.03125 C202.3377916 340.90865845 202.61698944 341.78606689 202.90464783 342.69006348 C204.48800941 347.80334729 205.70740775 352.63991928 206 358 C203.04070796 360.95929204 199.38143618 361.27262222 195.4140625 362.1640625 C194.13406876 362.45946426 194.13406876 362.45946426 192.82821655 362.76083374 C191.02169217 363.17607334 189.21434156 363.58773216 187.40625 363.99609375 C184.64112059 364.62135475 181.8790597 365.25896013 179.1171875 365.8984375 C177.36214796 366.30021719 175.6069447 366.70128253 173.8515625 367.1015625 C173.02540436 367.2921524 172.19924622 367.48274231 171.34805298 367.67910767 C170.57400116 367.85283905 169.79994934 368.02657043 169.00244141 368.20556641 C168.32452545 368.35941803 167.6466095 368.51326965 166.94815063 368.67178345 C165 369 165 369 161 369 C161.0721875 369.95132812 161.144375 370.90265625 161.21875 371.8828125 C161.93298085 382.27474434 162.11140519 392.64980223 162.125 403.0625 C162.12874634 404.08455536 162.12874634 404.08455536 162.13256836 405.1272583 C162.13843385 407.07571546 162.13580285 409.02419256 162.1328125 410.97265625 C162.13168457 412.10968994 162.13055664 413.24672363 162.12939453 414.41821289 C162 417 162 417 161 418 C150.16266577 418.81771165 139.05437586 417.35600071 128.25 416.5 C126.37763661 416.35504911 124.50524093 416.21051462 122.6328125 416.06640625 C118.08815539 415.71573478 113.54397174 415.359439 109 415 C108.75330566 415.99475342 108.50661133 416.98950684 108.25244141 418.0144043 C106.02726469 426.96530884 103.75157259 435.9003528 101.375 444.8125 C101.0759375 445.95525391 100.776875 447.09800781 100.46875 448.27539062 C100.03175781 449.91217773 100.03175781 449.91217773 99.5859375 451.58203125 C99.3286084 452.55374268 99.0712793 453.5254541 98.80615234 454.52661133 C98 457 98 457 96 460 C91.49113045 459.41284367 87.76890147 458.23040298 83.60546875 456.41796875 C82.40212891 455.89783203 81.19878906 455.37769531 79.95898438 454.84179688 C78.70176819 454.29048937 77.44460705 453.73905632 76.1875 453.1875 C74.94231962 452.64718152 73.69687872 452.10746299 72.45117188 451.56835938 C62.85129823 447.40140942 62.85129823 447.40140942 59.21337891 445.68603516 C58.41722168 445.31140137 57.62106445 444.93676758 56.80078125 444.55078125 C56.12829346 444.22376221 55.45580566 443.89674316 54.76293945 443.55981445 C52.79013326 442.74300053 52.79013326 442.74300053 50 444 C48.3076742 445.96489509 46.74131607 447.93002767 45.1875 450 C44.2124916 451.26552178 43.23584814 452.52978506 42.2578125 453.79296875 C41.73606445 454.4689209 41.21431641 455.14487305 40.67675781 455.84130859 C37.68028792 459.69902362 34.63361318 463.51404976 31.5625 467.3125 C30.97170654 468.05951172 30.38091309 468.80652344 29.7722168 469.57617188 C29.20929932 470.26904297 28.64638184 470.96191406 28.06640625 471.67578125 C27.57084229 472.29364502 27.07527832 472.91150879 26.56469727 473.5480957 C24.71066463 475.2684783 23.50778073 475.75474872 21 476 C18.73828125 474.375 18.73828125 474.375 16.3125 472 C12.98349765 468.86277179 9.66944765 465.76914403 6.125 462.875 C5.42632813 462.29492188 4.72765625 461.71484375 4.0078125 461.1171875 C2.10292118 459.80200412 2.10292118 459.80200412 0.10668945 460.21679688 C-2.4821165 461.17923626 -3.78398873 462.44567357 -5.71484375 464.4140625 C-6.40126953 465.09210938 -7.08769531 465.77015625 -7.79492188 466.46875 C-9.22528466 467.90823999 -10.64977109 469.35359261 -12.06835938 470.8046875 C-13.09993164 471.81789063 -13.09993164 471.81789063 -14.15234375 472.8515625 C-14.77101318 473.47885254 -15.38968262 474.10614258 -16.02709961 474.75244141 C-18 476 -18 476 -20.54272461 475.91601562 C-23.38749318 474.85555147 -24.35607433 473.90145206 -26.1640625 471.4921875 C-26.72399902 470.75919434 -27.28393555 470.02620117 -27.86083984 469.27099609 C-28.4430127 468.48031738 -29.02518555 467.68963867 -29.625 466.875 C-30.23166504 466.07271973 -30.83833008 465.27043945 -31.46337891 464.44384766 C-33.3244023 461.97369118 -35.16465258 459.48927638 -37 457 C-37.56783203 456.23429687 -38.13566406 455.46859375 -38.72070312 454.6796875 C-41.839622 450.47156334 -44.93187373 446.24528493 -48 442 C-50.3967668 442.97692592 -52.79246533 443.95634084 -55.1875 444.9375 C-56.30946777 445.39588257 -56.30946777 445.39588257 -57.45410156 445.86352539 C-61.87059196 447.67811902 -66.26006609 449.54204872 -70.62890625 451.46875 C-71.56387939 451.87875244 -72.49885254 452.28875488 -73.4621582 452.71118164 C-75.29607921 453.51788846 -77.12676958 454.33198694 -78.95385742 455.15405273 C-79.79924072 455.52473877 -80.64462402 455.8954248 -81.515625 456.27734375 C-82.26102539 456.60984131 -83.00642578 456.94233887 -83.77441406 457.28491211 C-86.2878273 458.09247983 -88.37609391 458.12727041 -91 458 C-93.19603899 452.43117659 -94.88694609 446.94636323 -96.26171875 441.125 C-96.45723831 440.31506592 -96.65275787 439.50513184 -96.85420227 438.6706543 C-97.47003544 436.11487951 -98.07888127 433.55750128 -98.6875 431 C-99.10695862 429.25379491 -99.52687624 427.5077 -99.94726562 425.76171875 C-100.97015023 421.50906691 -101.98677723 417.25496372 -103 413 C-103.56807373 413.05534912 -104.13614746 413.11069824 -104.72143555 413.16772461 C-110.28077334 413.7077553 -115.8410253 414.23710211 -121.40234375 414.75634766 C-123.48737141 414.95191698 -125.57189816 415.15282343 -127.65625 415.35546875 C-134.02505357 415.92176701 -140.35955795 416.09871476 -146.75 416.125 C-147.55010498 416.12967285 -148.35020996 416.1343457 -149.17456055 416.13916016 C-154.87694653 416.12305347 -154.87694653 416.12305347 -156 415 C-156.10053793 413.07763893 -156.13081828 411.15154977 -156.1328125 409.2265625 C-156.13474609 408.01701904 -156.13667969 406.80747559 -156.13867188 405.5612793 C-156.13416016 404.26230713 -156.12964844 402.96333496 -156.125 401.625 C-156.12306641 400.31635986 -156.12113281 399.00771973 -156.11914062 397.65942383 C-156.07383971 387.41323846 -155.71273182 377.22006521 -155 367 C-155.59611084 366.97421875 -156.19222168 366.9484375 -156.80639648 366.921875 C-165.05750763 366.38207552 -172.82755466 364.56226467 -180.8190918 362.56152344 C-183.08772171 361.99368702 -185.35894104 361.43733112 -187.63085938 360.8828125 C-189.07828478 360.52669046 -190.52555651 360.16994309 -191.97265625 359.8125 C-192.98816307 359.56246216 -192.98816307 359.56246216 -194.02418518 359.30737305 C-198.7646924 358.1176538 -198.7646924 358.1176538 -201 357 C-200.4042141 351.4560843 -198.99875556 346.62580557 -197.09375 341.3984375 C-196.80898804 340.59894684 -196.52422607 339.79945618 -196.23083496 338.97573853 C-195.32676784 336.43988537 -194.41403137 333.90727689 -193.5 331.375 C-192.58708231 328.83521001 -191.67612712 326.2947612 -190.76916504 323.75283813 C-190.20639986 322.176614 -189.64007811 320.6016538 -189.06970215 319.02816772 C-187.76041424 315.37087443 -186.61958562 311.85150389 -186 308 C-186.65895264 307.59273682 -187.31790527 307.18547363 -187.99682617 306.76586914 C-213.62101234 290.9054085 -213.62101234 290.9054085 -223 284 C-224.40185547 283.04673828 -224.40185547 283.04673828 -225.83203125 282.07421875 C-228 280 -228 280 -228.65234375 277.6640625 C-227.69009423 273.7343968 -225.23563326 271.2755401 -222.5625 268.375 C-221.45726709 267.13376109 -220.35311135 265.89156225 -219.25 264.6484375 C-218.69957031 264.03452148 -218.14914062 263.42060547 -217.58203125 262.78808594 C-215.33497911 260.24836219 -213.1985182 257.63394137 -211.0625 255 C-208.0662183 251.31184961 -205.05172036 247.64237591 -202 244 C-205.69523623 239.47333561 -209.49478457 235.60268466 -213.92578125 231.8046875 C-220.44329153 226.13408533 -227.08257016 219.80830084 -231 212 C-230.71842043 209.58680063 -230.36320564 208.36126751 -228.62744141 206.63476562 C-228.04140137 206.22935547 -227.45536133 205.82394531 -226.8515625 205.40625 C-226.18439209 204.93864258 -225.51722168 204.47103516 -224.82983398 203.98925781 C-223.73844116 203.2520752 -223.73844116 203.2520752 -222.625 202.5 C-221.88000244 201.9853418 -221.13500488 201.47068359 -220.36743164 200.94042969 C-211.74435992 195.03859886 -202.88759706 189.49238487 -194 184 C-197.8575673 173.6115066 -202.26603024 163.55973891 -206.890625 153.49023438 C-207.40625 152.35005859 -207.921875 151.20988281 -208.453125 150.03515625 C-208.91879883 149.0181665 -209.38447266 148.00117676 -209.86425781 146.95336914 C-211.01775439 143.95383171 -211.58684779 141.17943712 -212 138 C-205.80465279 135.8134762 -199.48649866 134.56273144 -193.05957031 133.28564453 C-191.00436582 132.87587047 -188.95142749 132.45586702 -186.8984375 132.03515625 C-185.57825002 131.77020963 -184.25794127 131.50586637 -182.9375 131.2421875 C-181.75027344 131.0035498 -180.56304688 130.76491211 -179.33984375 130.51904297 C-176.16183781 130.02515111 -173.20934924 129.90291352 -170 130 C-170.17015625 129.25363281 -170.3403125 128.50726563 -170.515625 127.73828125 C-172.49875994 118.48716774 -173.92496936 109.17963417 -175.25 99.8125 C-175.43723633 98.5231958 -175.62447266 97.2338916 -175.81738281 95.90551758 C-175.98592773 94.68501709 -176.15447266 93.4645166 -176.328125 92.20703125 C-176.4818457 91.1085083 -176.63556641 90.00998535 -176.79394531 88.87817383 C-176.982512 86.24427255 -176.83334862 84.47864906 -176 82 C-157.54586211 81.78146858 -139.35826 81.8009357 -121 84 C-120.84144531 82.80890625 -120.68289063 81.6178125 -120.51953125 80.390625 C-119.04497623 69.57469348 -117.33741874 58.81209566 -115.4375 48.0625 C-115.22778564 46.86077148 -115.01807129 45.65904297 -114.80200195 44.42089844 C-114.49588989 42.71401855 -114.49588989 42.71401855 -114.18359375 40.97265625 C-113.91373657 39.46070679 -113.91373657 39.46070679 -113.63842773 37.91821289 C-112.96781107 34.85286643 -112.04264452 31.95750394 -111 29 C-106.16117919 27.40585396 -102.44537402 28.85500964 -97.84765625 30.4921875 C-97.06990341 30.75758331 -96.29215057 31.02297913 -95.49082947 31.29641724 C-93.01065569 32.14463303 -90.53646497 33.0088595 -88.0625 33.875 C-85.59131956 34.73141885 -83.1190169 35.58431255 -80.6448822 36.43215942 C-79.10809883 36.95969427 -77.57312278 37.49253343 -76.04029846 38.03146362 C-72.03773216 39.41500672 -68.22016267 40.44295679 -64 41 C-63.40574219 39.92105469 -62.81148437 38.84210938 -62.19921875 37.73046875 C-59.97379024 33.69909275 -57.73280367 29.67657709 -55.48486328 25.65771484 C-54.49076246 23.87840186 -53.49957322 22.09745921 -52.51123047 20.31494141 C-51.06017018 17.70360587 -49.59439771 15.10105176 -48.125 12.5 C-47.67342529 11.68168701 -47.22185059 10.86337402 -46.7565918 10.02026367 C-46.32386963 9.26076416 -45.89114746 8.50126465 -45.4453125 7.71875 C-45.06906738 7.04779297 -44.69282227 6.37683594 -44.30517578 5.68554688 C-42.76174159 3.69230527 -41.30561257 2.95808167 -39 2 C-31.94458558 7.2647001 -24.92369698 12.5624501 -18 18 C-12.78519918 13.78377806 -8.34850037 9.20483691 -3.91796875 4.171875 C-2.65517574 2.7419098 -1.34897122 1.34897122 0 0 Z M-38 54 C-39.20003662 54.26490234 -39.20003662 54.26490234 -40.42431641 54.53515625 C-84.38869192 64.55446951 -124.89275267 93.87243773 -150 131 C-150.43747559 131.64114746 -150.87495117 132.28229492 -151.32568359 132.94287109 C-172.44924779 164.2623903 -182.4641892 200.79142614 -182.375 238.375 C-182.37468277 239.61641251 -182.37468277 239.61641251 -182.37435913 240.88290405 C-182.23952941 294.02051309 -160.46068565 339.81016734 -123.14306641 377.10595703 C-112.59646926 387.41596098 -100.70772354 395.58479572 -88 403 C-87.39075684 403.35690918 -86.78151367 403.71381836 -86.15380859 404.08154297 C-72.7567096 411.82588827 -58.37878336 417.7848907 -43.4375 421.8125 C-42.7681543 421.99514404 -42.09880859 422.17778809 -41.40917969 422.3659668 C-26.32029124 426.1627408 -11.20426581 427.55683465 4.3125 427.4375 C5.15962555 427.43445862 6.0067511 427.43141724 6.87954712 427.42828369 C20.26278591 427.35749371 33.02252179 426.49919048 46 423 C46.85529297 422.77505859 47.71058594 422.55011719 48.59179688 422.31835938 C99.35668494 408.69851136 140.78021806 376.34552269 167.30859375 331.1171875 C183.3287826 302.82129599 190.46174762 271.30322155 190.375 239 C190.37412384 238.19462799 190.37324768 237.38925598 190.37234497 236.55947876 C190.26927325 207.66622753 183.87861607 179.93013948 171 154 C170.47019531 152.915979 170.47019531 152.915979 169.9296875 151.81005859 C164.84850293 141.49461421 159.00947933 132.10860533 152 123 C151.30519531 122.08089844 150.61039063 121.16179687 149.89453125 120.21484375 C119.84617477 81.93560538 73.79201326 57.15876852 25.82714844 50.70776367 C4.5935988 48.27850164 -17.1880412 49.27871432 -38 54 Z " fill="#F3F8F7" transform="translate(997,272)"/>
<path d="M0 0 C1.16902265 18.96414519 -4.69589032 35.2266031 -16.97265625 49.7890625 C-27.6205019 61.40116393 -41.35288733 69.04411092 -57 71 C-56.67 103.01 -56.34 135.02 -56 168 C-54.35 161.73 -52.7 155.46 -51 149 C-49.80115857 145.70976653 -48.66804331 142.69006566 -47.1875 139.5625 C-46.848396 138.82572021 -46.50929199 138.08894043 -46.15991211 137.32983398 C-43.05877387 130.77774052 -39.36218676 124.79417597 -35 119 C-33.93458984 117.58460938 -33.93458984 117.58460938 -32.84765625 116.140625 C-14.970752 93.3939138 10.77570491 80.26845961 39.0625 75.75 C45.64314742 74.96592286 52.18811118 74.79498736 58.8125 74.75 C59.78646729 74.7406543 60.76043457 74.73130859 61.76391602 74.72167969 C62.67326904 74.72586914 63.58262207 74.73005859 64.51953125 74.734375 C65.33526611 74.73663086 66.15100098 74.73888672 66.99145508 74.74121094 C69 75 69 75 71 77 C71.23493462 79.65140505 71.33161296 82.1594532 71.3125 84.8125 C71.30831055 85.60712646 71.30412109 86.40175293 71.29980469 87.22045898 C70.71931799 119.01445657 61.28017075 150.60396094 39 174 C17.92503545 193.5045499 -7.79915299 202.14821566 -35.79980469 205.61987305 C-41.69262843 206.37232394 -46.75211521 207.13549871 -52 210 C-53.89912539 213.79825079 -53.27176919 218.38351849 -53.3125 222.5625 C-53.34150391 223.52736328 -53.37050781 224.49222656 -53.40039062 225.48632812 C-53.45823276 232.07588195 -52.51818236 237.34038237 -49 243 C-42.65546853 248.72555279 -33.4622759 250.64470058 -25.35864258 252.75463867 C-10.69926083 256.6102943 0.54400934 262.57268633 9.578125 275.20703125 C12.17610487 279.84497418 12.53485386 283.74060373 12 289 C11.34 289.99 10.68 290.98 10 292 C6.875 292.1875 6.875 292.1875 4 292 C3.57589844 291.14277344 3.15179687 290.28554688 2.71484375 289.40234375 C-4.20893829 275.90477306 -12.27414276 268.89899702 -26.77685547 264.07666016 C-30.8086419 262.82414912 -34.84835616 261.6153177 -38.91601562 260.484375 C-44.48544679 258.91048797 -49.11421045 257.11902281 -54 254 C-53.93957111 256.54405638 -53.85240972 259.08256731 -53.75 261.625 C-53.73582031 262.33785156 -53.72164062 263.05070312 -53.70703125 263.78515625 C-53.42751408 269.87863062 -51.54628498 273.66793402 -46.95703125 277.87109375 C-45.89548828 278.64646484 -45.89548828 278.64646484 -44.8125 279.4375 C-44.02875 280.02402344 -43.245 280.61054687 -42.4375 281.21484375 C-41.633125 281.80394531 -40.82875 282.39304687 -40 283 C-30.58768392 289.95087158 -23.64088906 296.52108587 -20 308 C-19.8011729 310.78855005 -20.13219241 312.28086954 -21 315 C-23 317 -23 317 -26.125 317.125 C-27.07375 317.08375 -28.0225 317.0425 -29 317 C-29.32871094 316.18208984 -29.32871094 316.18208984 -29.6640625 315.34765625 C-34.60150546 303.60617604 -41.14285012 295.79065638 -51.76171875 288.79296875 C-52.55924561 288.26598389 -53.35677246 287.73899902 -54.1784668 287.19604492 C-54.77957275 286.8013501 -55.38067871 286.40665527 -56 286 C-55.97643433 287.748573 -55.97643433 287.748573 -55.95239258 289.5324707 C-55.89812466 293.85417786 -55.86366141 298.17585485 -55.83520508 302.49780273 C-55.82011127 304.36894799 -55.79963411 306.24005783 -55.77368164 308.11108398 C-55.73732407 310.79940526 -55.72027985 313.48725913 -55.70703125 316.17578125 C-55.69154739 317.01337479 -55.67606354 317.85096832 -55.66011047 318.71394348 C-55.65841142 324.56696679 -55.65841142 324.56696679 -57.36112976 326.72550964 C-59 328 -59 328 -61.5625 328.3125 C-64 328 -64 328 -66 326 C-67.28420285 321.568231 -67.21870457 316.99846725 -67.31640625 312.41796875 C-67.3475779 311.19670036 -67.3475779 311.19670036 -67.37937927 309.95075989 C-67.44449463 307.36308821 -67.50358208 304.77531947 -67.5625 302.1875 C-67.60572142 300.42772455 -67.64933685 298.66795872 -67.69335938 296.90820312 C-67.8001368 292.60556691 -67.90151018 288.30283357 -68 284 C-68.52964355 284.46615723 -69.05928711 284.93231445 -69.60498047 285.41259766 C-73.07084067 288.45561816 -76.55532594 291.45435758 -80.125 294.375 C-86.6046854 300.05425367 -90.30795649 307.34242828 -94 315 C-95 316 -95 316 -97.875 316.25 C-101 316 -101 316 -102.9375 314.9375 C-104.6975203 311.72805122 -103.85692027 309.48480909 -103 306 C-99.56428754 296.08375206 -91.42285855 288.76476671 -83.2109375 282.65625 C-80.92659589 280.94501176 -78.73501097 279.16344797 -76.5625 277.3125 C-75.92441406 276.77238281 -75.28632812 276.23226563 -74.62890625 275.67578125 C-71.63199236 272.59262523 -70.75777064 269.69167573 -70.5859375 265.453125 C-70.54726563 264.60878906 -70.50859375 263.76445313 -70.46875 262.89453125 C-70.4378125 262.02183594 -70.406875 261.14914062 -70.375 260.25 C-70.33632813 259.36183594 -70.29765625 258.47367188 -70.2578125 257.55859375 C-70.16379127 255.3726002 -70.07813857 253.18660938 -70 251 C-70.33 251.33 -70.66 251.66 -71 252 C-77.82650445 256.61030231 -84.61249016 259.48133261 -92.4375 261.9375 C-104.9593736 266.1068087 -115.19137772 270.8076414 -123 282 C-124.12779372 284.38008415 -125.10168738 286.78414535 -126.07421875 289.23046875 C-127 291 -127 291 -129.5 292.3125 C-132 292 -132 292 -134.375 290.625 C-136.4647905 287.24918458 -136.37285186 285.34286054 -135.72265625 281.4921875 C-132.76704621 271.29932694 -125.10596834 263.88725606 -116.35546875 258.31640625 C-108.77332789 254.23371502 -100.65380788 251.86827812 -92.453125 249.375 C-81.81843479 246.32591623 -81.81843479 246.32591623 -73 240 C-71.01355603 235.28838813 -70.69290398 230.90125224 -70.69921875 225.85546875 C-70.69279106 224.70163445 -70.69279106 224.70163445 -70.68623352 223.52449036 C-70.68051444 221.90329976 -70.67997202 220.28208351 -70.68432617 218.66088867 C-70.6874774 216.20511107 -70.66402824 213.75055014 -70.63867188 211.29492188 C-70.60784514 203.29675829 -70.72064856 196.44992503 -74 189 C-75.21393433 188.94054199 -75.21393433 188.94054199 -76.45239258 188.87988281 C-109.63458492 187.17593876 -141.32168419 182.55430417 -166 158 C-166.75925781 157.27554688 -167.51851562 156.55109375 -168.30078125 155.8046875 C-186.37343862 137.38868085 -193.01463227 109.16018573 -193.5 84.125 C-193.53077637 83.1669043 -193.56155273 82.20880859 -193.59326172 81.22167969 C-193.59443768 74.68569464 -193.59443768 74.68569464 -191.16796875 71.88671875 C-186.36880539 70.54342642 -181.77248826 70.60198963 -176.8125 70.6875 C-175.74040283 70.69950439 -174.66830566 70.71150879 -173.5637207 70.72387695 C-148.13603643 71.16937802 -120.61753564 75.4157598 -101 93 C-100.19433594 93.65355469 -99.38867188 94.30710937 -98.55859375 94.98046875 C-83.93848121 107.23457834 -76.38154902 124.4507402 -70 142 C-69.67 118.57 -69.34 95.14 -69 71 C-72.3 70.67 -75.6 70.34 -79 70 C-87.52921254 66.71953364 -94.69136451 61.14253241 -98.9375 52.9375 C-102.84779126 44.0517002 -104.85352121 34.56500311 -102 25 C-90.49639183 25.49907194 -80.94503504 28.37842267 -73 37 C-70.38315391 40.15964168 -67.83979746 43.32040507 -66 47 C-65.443125 45.88882813 -64.88625 44.77765625 -64.3125 43.6328125 C-54.14524917 23.65797481 -41.23078556 9.97647062 -20 2 C-13.36197846 -0.04388458 -6.90693384 -0.26452087 0 0 Z " fill="#F3F8F7" transform="translate(1057,353)"/>
<path d="M0 0 C0.79390137 0.09651855 1.58780273 0.19303711 2.40576172 0.29248047 C45.29602648 5.74213022 87.16828282 22.42591342 122 48 C122.5676709 48.41604492 123.1353418 48.83208984 123.72021484 49.26074219 C141.97498287 62.7499086 159.10560945 77.98699964 173 96 C174.00294676 97.25207127 175.00692896 98.50331354 176.01171875 99.75390625 C188.0521019 114.9112605 197.91270386 131.4215299 206 149 C206.3619043 149.7842334 206.72380859 150.5684668 207.09667969 151.37646484 C213.13436193 164.60737891 217.95485611 178.03567634 222 192 C222.20463867 192.69335449 222.40927734 193.38670898 222.62011719 194.10107422 C235.84294634 239.61945206 234.23134617 291.56928564 222 337 C221.74234863 337.97098633 221.48469727 338.94197266 221.21923828 339.94238281 C210.41114745 379.93164041 190.10444053 417.27831596 162.04296875 447.7734375 C160.17040692 449.81427926 158.36170466 451.89463697 156.5625 454 C149.08435309 462.54399773 140.89674361 469.96945986 132 477 C130.92876942 477.87257203 129.85848912 478.74631172 128.7890625 479.62109375 C98.85634195 503.90777009 63.57915415 520.32408722 26.1875 529.25 C24.75168579 529.60118896 24.75168579 529.60118896 23.28686523 529.95947266 C3.79497061 534.39414492 -15.94488767 535.55645263 -35.875 535.4375 C-36.96496277 535.43445862 -38.05492554 535.43141724 -39.17791748 535.42828369 C-55.45663395 535.36125631 -71.08268304 534.67900251 -87 531 C-88.50723633 530.67056396 -88.50723633 530.67056396 -90.04492188 530.33447266 C-130.38009047 521.43478602 -169.18217942 503.50859698 -201 477 C-201.55429687 476.5472168 -202.10859375 476.09443359 -202.6796875 475.62792969 C-216.7063279 464.16260553 -230.02975334 451.44813282 -241 437 C-241.92670476 435.8135063 -242.85381655 434.62733044 -243.78125 433.44140625 C-286.39241516 378.39648241 -306.99742975 307.46519683 -298.98242188 238.05786133 C-298.67681602 235.70165019 -298.34179917 233.35122097 -298 231 C-297.87641113 230.09233887 -297.75282227 229.18467773 -297.62548828 228.24951172 C-289.79299979 171.67520997 -264.27823999 119.30083213 -225 78 C-224.46213867 77.43345703 -223.92427734 76.86691406 -223.37011719 76.28320312 C-215.68914009 68.25167884 -207.7265876 61.02215451 -198.82275391 54.37402344 C-196.93838415 52.9535529 -195.08355813 51.50005166 -193.23046875 50.0390625 C-156.32011473 21.22170036 -108.495591 3.10568865 -62 -1 C-60.9584375 -1.10957031 -59.916875 -1.21914062 -58.84375 -1.33203125 C-39.2905463 -3.11175246 -19.46072788 -2.39557024 0 0 Z M-76 15 C-76.88574707 15.14453613 -77.77149414 15.28907227 -78.68408203 15.43798828 C-139.27925818 25.70970671 -197.54918588 60.1790849 -234 110 C-234.84604192 111.12783846 -235.69239736 112.25544181 -236.5390625 113.3828125 C-246.60582268 126.95848003 -254.87398493 141.69340155 -262 157 C-262.36480469 157.7832666 -262.72960937 158.5665332 -263.10546875 159.37353516 C-291.23457587 220.56394353 -294.24712978 293.82753309 -270.85400391 357.09960938 C-254.67066971 399.04430278 -227.75390234 438.30974372 -192 466 C-190.52853516 467.17949219 -190.52853516 467.17949219 -189.02734375 468.3828125 C-137.95977818 509.03776487 -71.65105552 527.53128324 -6.921875 520.75390625 C18.38150138 517.73735685 42.65991312 511.14323494 66 501 C66.74233887 500.67773438 67.48467773 500.35546875 68.24951172 500.0234375 C84.62412502 492.81904694 99.72706168 483.76218968 114 473 C114.56783203 472.57638184 115.13566406 472.15276367 115.72070312 471.71630859 C131.80552318 459.66176053 146.53642534 445.77051582 159 430 C159.49306641 429.38334473 159.98613281 428.76668945 160.49414062 428.13134766 C191.78349759 388.88461723 209.92692342 342.60058868 216 293 C216.17345947 291.74566162 216.34691895 290.49132324 216.52563477 289.19897461 C217.03902467 285.0753722 217.17728939 280.97283983 217.203125 276.8203125 C217.21371445 275.67800423 217.21371445 275.67800423 217.22451782 274.51261902 C217.75110444 200.77412486 193.86120708 135.94899884 142 83 C104.31017097 45.18967919 52.49387654 21.35123642 0 14 C-0.69754395 13.89558594 -1.39508789 13.79117187 -2.11376953 13.68359375 C-26.43772348 10.12426546 -51.80714346 11.0431652 -76 15 Z " fill="#F4F8F7" transform="translate(1036,243)"/>
<path d="M0 0 C10.37245139 7.56402593 16.99448161 17.03050496 20.6875 29.375 C22.84332024 44.22620608 20.00664851 56.9873046 11.25 69.25 C2.30689737 79.84685411 -8.09546162 85.98978578 -22.01953125 87.63671875 C-35.01966752 88.0925881 -46.9614861 83.71488453 -56.93359375 75.4375 C-65.44093931 67.46085841 -71.57710777 56.97204178 -72.18359375 45.1640625 C-72.20730495 43.40120064 -72.20809238 41.63790105 -72.1875 39.875 C-72.17847656 38.94961426 -72.16945313 38.02422852 -72.16015625 37.07080078 C-71.82738009 23.94231912 -66.83698341 14.14893742 -57.39453125 4.95703125 C-41.01566253 -8.92204193 -18.46776571 -11.47572538 0 0 Z " fill="#009B6D" transform="translate(559.75,640.75)"/>
<path d="M0 0 C1.71509766 0.01353516 1.71509766 0.01353516 3.46484375 0.02734375 C4.32207031 0.03894531 5.17929688 0.05054688 6.0625 0.0625 C7.58307139 25.12376913 -0.34971922 53.66323053 -16.86328125 72.8046875 C-17.54777344 73.54976562 -18.23226563 74.29484375 -18.9375 75.0625 C-19.67355469 75.89007812 -20.40960937 76.71765625 -21.16796875 77.5703125 C-37.90329456 95.42496679 -64.10214527 106.07616778 -88.4453125 107.17578125 C-90.27640604 107.18535143 -92.10773433 107.1328756 -93.9375 107.0625 C-82.49282602 89.35614233 -66.73170749 74.60657636 -49.9375 62.0625 C-48.1839182 60.73388092 -46.43339431 59.40120491 -44.6875 58.0625 C-44.00171875 57.546875 -43.3159375 57.03125 -42.609375 56.5 C-40.68568813 54.97648637 -40.68568813 54.97648637 -38.9375 52.0625 C-38.9375 51.0725 -38.9375 50.0825 -38.9375 49.0625 C-44.06906095 48.64790742 -47.53688803 49.92950629 -51.9375 52.375 C-52.58904053 52.73255371 -53.24058105 53.09010742 -53.91186523 53.45849609 C-70.8255454 63.05401226 -85.16177829 77.11933752 -95.94921875 93.19921875 C-97.52184778 95.46392814 -98.97407645 97.17712559 -100.9375 99.0625 C-98.38679442 69.90734205 -85.10424685 40.84125594 -63.00390625 21.4765625 C-48.47074583 10.03516997 -32.07014557 3.95622874 -13.9375 1.0625 C-12.205 0.78019531 -12.205 0.78019531 -10.4375 0.4921875 C-6.91619154 0.05988401 -3.5454717 -0.03655125 0 0 Z " fill="#01986B" transform="translate(1109.9375,439.9375)"/>
<path d="M0 0 C27.54728871 -0.73350769 54.76668917 2.85302324 76.4375 21.5 C92.28519659 36.96116741 100.3812713 59.32868391 103 81 C102.67 81.66 102.34 82.32 102 83 C101.26136719 82.18917969 100.52273438 81.37835937 99.76171875 80.54296875 C76.4812161 54.74678717 76.4812161 54.74678717 46 39 C43.24934768 38.83142517 43.24934768 38.83142517 41 39 C40.55477999 41.31712681 40.55477999 41.31712681 41 44 C43.25849907 46.31378306 43.25849907 46.31378306 46.3125 48.3125 C46.85720947 48.70002441 47.40191895 49.08754883 47.96313477 49.48681641 C49.6324901 50.67226909 51.31509108 51.83680143 53 53 C65.4200816 61.7845115 76.52919771 71.35436014 87.3125 82.0625 C88.16779297 82.90852783 89.02308594 83.75455566 89.90429688 84.6262207 C90.69513672 85.42116943 91.48597656 86.21611816 92.30078125 87.03515625 C93.01403564 87.7506665 93.72729004 88.46617676 94.4621582 89.20336914 C96 91 96 91 96 93 C71.51181755 94.18491205 44.15852176 85.64454564 25.5625 69.5390625 C9.48361057 53.60723608 0.87425517 31.60117377 -0.18359375 9.09375 C-0.18689633 6.05537516 -0.1403082 3.03481446 0 0 Z " fill="#01966B" transform="translate(876,436)"/>
<path d="M0 0 C3.50356183 1.16785394 4.14661747 2.1597195 6.3125 5.0625 C6.91835938 5.866875 7.52421875 6.67125 8.1484375 7.5 C8.75945312 8.325 9.37046875 9.15 10 10 C11.14570217 11.52093214 12.29152429 13.04177394 13.4375 14.5625 C14.29250133 15.70771066 15.14700232 16.85329616 16 18 C19.96744055 17.44492231 21.8969495 15.52471521 24.75 12.8125 C27.90808469 9.89698607 31.05652701 7.03103239 34.4375 4.375 C35.05496094 3.88773437 35.67242188 3.40046875 36.30859375 2.8984375 C36.86675781 2.60195313 37.42492188 2.30546875 38 2 C42.00628262 3.33542754 42.57962226 5.10134812 44.7578125 8.6796875 C45.1063327 9.2482547 45.45485291 9.8168219 45.81393433 10.40261841 C46.5491262 11.6056203 47.28015956 12.81117203 48.00732422 14.01904297 C49.11957643 15.86599389 50.24408446 17.70499336 51.37109375 19.54296875 C56.83891491 28.51674474 56.83891491 28.51674474 58 32 C57.34443115 31.87955322 56.6888623 31.75910645 56.01342773 31.63500977 C49.03696559 30.35912039 42.0546014 29.12466764 35.0625 27.9375 C33.57073242 27.67743164 33.57073242 27.67743164 32.04882812 27.41210938 C4.67835504 22.78236636 -21.77241425 25.10810827 -48.63842773 31.45922852 C-51.08426179 32.01929493 -53.5375933 32.51856354 -56 33 C-50.68888255 22.11727433 -45.03200101 11.50014991 -39 1 C-33.19637369 4.62212139 -28.09004875 8.53617564 -23.140625 13.265625 C-20.85483416 15.11761612 -18.76961422 16.05097135 -16 17 C-11.24222036 12.35344118 -6.68207665 7.61171109 -2.34765625 2.56640625 C-1.59150381 1.68751602 -0.81982149 0.81982149 0 0 Z " fill="#039268" transform="translate(998,286)"/>
<path d="M0 0 C4.60495583 0.47717349 9.17370301 1.00252315 13.7421875 1.75390625 C34.49939412 5.08974104 55.20743804 4.9518974 76 2 C78.66570626 1.65850857 81.33275317 1.32932636 84 1 C81.03688856 6.54949478 77.5664917 11.28360203 73.5625 16.125 C73.00240234 16.81464844 72.44230469 17.50429688 71.86523438 18.21484375 C68.74846858 22.01897096 65.54652268 25.59268662 62 29 C56.42119955 24.29386107 51.26007608 19.29854061 46.19921875 14.0390625 C44.08770752 11.79972467 44.08770752 11.79972467 41 11 C40.60731934 11.4031543 40.21463867 11.80630859 39.81005859 12.22167969 C38.0038111 14.06985887 36.18950998 15.90993354 34.375 17.75 C33.44880859 18.70132813 33.44880859 18.70132813 32.50390625 19.671875 C28.89432268 23.31945419 25.38528867 26.32834721 21 29 C0 1.70673077 0 1.70673077 0 0 Z " fill="#029A6A" transform="translate(956,706)"/>
<path d="M0 0 C-1.36125995 13.86262679 -8.22957265 24.38716019 -18 34 C-18.86238281 34.86044922 -18.86238281 34.86044922 -19.7421875 35.73828125 C-27.20107243 42.64399529 -35.95035618 46.73561965 -46 48 C-44.65512542 35.83429549 -39.16428398 25.93723394 -31 17 C-30.48050781 16.37738281 -29.96101562 15.75476563 -29.42578125 15.11328125 C-22.62028413 7.48495325 -10.34101652 0 0 0 Z " fill="#029469" transform="translate(1046,365)"/>
<path d="M0 0 C1.16532027 7.34060011 1.1134298 14.57992061 1.0625 22 C1.05798828 23.25167969 1.05347656 24.50335937 1.04882812 25.79296875 C1.03711415 28.86202941 1.02071073 31.93098907 1 35 C-11.89155726 35.4318343 -24.25517175 33.87360436 -37 32 C-33.79610244 28.61593217 -30.25855474 25.81531231 -26.5625 23 C-18.27666152 16.5942705 -10.52827177 9.62452746 -3.19140625 2.1484375 C-1 0 -1 0 0 0 Z " fill="#039B6A" transform="translate(1148,645)"/>
<path d="M0 0 C1.5599045 3.11980901 0.27972913 5.37500906 -0.6171875 8.6875 C-0.79379913 9.34580811 -0.97041077 10.00411621 -1.15237427 10.68237305 C-1.52745038 12.07528293 -1.90595319 13.46727388 -2.28759766 14.85839844 C-2.87215922 16.98964284 -3.44676797 19.12337048 -4.01953125 21.2578125 C-6.83164131 31.66328261 -6.83164131 31.66328261 -8 34 C-14.49123856 32.00561586 -20.57024663 29.50094007 -26.6875 26.5625 C-27.50283203 26.18029297 -28.31816406 25.79808594 -29.15820312 25.40429688 C-33.70825146 23.23778235 -37.88850886 20.91590406 -42 18 C-39.37059303 16.24706202 -37.43036556 15.34421149 -34.4921875 14.3359375 C-33.59516113 14.02205078 -32.69813477 13.70816406 -31.77392578 13.38476562 C-30.81728027 13.05154297 -29.86063477 12.71832031 -28.875 12.375 C-18.92540713 8.84656588 -9.44153411 4.70824513 0 0 Z " fill="#049B6A" transform="translate(1095,686)"/>
<path d="M0 0 C4.05446546 3.3001463 7.79129774 6.773748 11.43383789 10.515625 C17.1491753 16.38260605 23.04228259 21.65032321 29.59399414 26.57299805 C33.91277569 29.82555138 33.91277569 29.82555138 35 32 C23.1732363 35.05864578 11.15790807 35.18176275 -1 35 C-1.20638953 11.41761516 -1.20638953 11.41761516 0 0 Z " fill="#059A6A" transform="translate(852,643)"/>
<path d="M0 0 C6.3538961 24.86038961 6.3538961 24.86038961 6 33 C0.87717369 31.20178342 -3.67245944 28.41906957 -8.375 25.75 C-16.70256028 21.08274626 -25.01521823 17.22635345 -34 14 C-34 13.34 -34 12.68 -34 12 C-30.2102164 10.45051631 -26.41992139 8.90229114 -22.62915039 7.35522461 C-21.33994699 6.82887689 -20.05088325 6.30218695 -18.76196289 5.77514648 C-16.90808374 5.01716353 -15.05365814 4.26051752 -13.19921875 3.50390625 C-12.08377686 3.04830322 -10.96833496 2.5927002 -9.8190918 2.12329102 C-6.18920623 0.67693235 -3.97255634 0 0 0 Z " fill="#049369" transform="translate(1104,310)"/>
<path d="M0 0 C7.61819298 1.2809351 14.72688895 3.42313395 22 6 C23.55267578 6.53367187 23.55267578 6.53367187 25.13671875 7.078125 C32.74270624 9.74270624 32.74270624 9.74270624 35 12 C34.030625 12.47308594 33.06125 12.94617188 32.0625 13.43359375 C19.36668773 19.67761925 6.89335966 26.31887188 -5 34 C-3.87190866 22.53328333 -2.30724294 11.2901088 0 0 Z " fill="#049267" transform="translate(893,312)"/>
<path d="M0 0 C3.91067041 1.47335879 7.63127199 3.24811904 11.38549805 5.07250977 C20.74846732 9.61507096 30.18558581 13.54803363 40 17 C40 17.66 40 18.32 40 19 C14.024 33 14.024 33 8 33 C4.83143502 22.06657221 2.03279923 11.20518602 0 0 Z " fill="#029A6A" transform="translate(904,685)"/>
<path d="M0 0 C-0.11593506 0.63276855 -0.23187012 1.26553711 -0.35131836 1.91748047 C-2.77216237 15.29563794 -4.65658246 28.40066539 -5 42 C-14.12064368 37.93929384 -22.53686252 29.48521504 -29 22 C-29.33 21.01 -29.66 20.02 -30 19 C-23.17873003 13.10963275 -15.98197511 8.40055047 -8.22265625 3.8828125 C-1.57676349 0 -1.57676349 0 0 0 Z " fill="#02966A" transform="translate(809,465)"/>
<path d="M0 0 C0.06993164 0.63276855 0.13986328 1.26553711 0.21191406 1.91748047 C1.52670135 13.60471346 2.92526169 25.13558552 5.81738281 36.55224609 C7.09600808 41.71197577 7.09600808 41.71197577 6 45 C2.28665754 42.77909925 -1.41972303 40.54682666 -5.125 38.3125 C-6.17171875 37.68666016 -7.2184375 37.06082031 -8.296875 36.41601562 C-13.5391759 33.2474097 -18.45339264 30.11397171 -23 26 C-4.00286533 0 -4.00286533 0 0 0 Z " fill="#03986A" transform="translate(804,523)"/>
<path d="M0 0 C8.63062973 6.97795595 16.61670941 15.20452221 22 25 C22 25.66 22 26.32 22 27 C20.19921875 28.35693359 20.19921875 28.35693359 17.6875 29.8984375 C16.77613281 30.46046875 15.86476563 31.0225 14.92578125 31.6015625 C13.47751953 32.47941406 13.47751953 32.47941406 12 33.375 C11.06542969 33.9525 10.13085938 34.53 9.16796875 35.125 C3.88871457 38.35900466 -1.41594132 41.32650021 -7 44 C-6.85900879 43.27111572 -6.71801758 42.54223145 -6.57275391 41.79125977 C-3.90137989 27.90164637 -1.33137768 14.08875782 0 0 Z " fill="#039B6C" transform="translate(1198,523)"/>
<path d="M0 0 C4.93274056 1.76665557 9.38079822 4.323247 13.9375 6.875 C14.72318359 7.30941406 15.50886719 7.74382812 16.31835938 8.19140625 C20.68174007 10.62321507 24.88868574 13.16233526 29 16 C27.54245551 20.73262941 24.73215239 23.81232528 21.375 27.3125 C20.83955566 27.8799292 20.30411133 28.4473584 19.75244141 29.03198242 C18.17629393 30.69585128 16.58957724 32.34897003 15 34 C14.175 34.86625 13.35 35.7325 12.5 36.625 C8.58702003 40.65306761 8.58702003 40.65306761 7 42 C6.34 42 5.68 42 5 42 C4.94392578 40.48986328 4.94392578 40.48986328 4.88671875 38.94921875 C4.39337686 27.80210516 2.90722379 16.9852876 1 6 C0.66559643 4.00017867 0.33178124 2.00025806 0 0 Z " fill="#03996A" transform="translate(1193,465)"/>
<path d="M0 0 C3.97915085 -0.02934144 7.95827337 -0.04691265 11.9375 -0.0625 C13.05447266 -0.07087891 14.17144531 -0.07925781 15.32226562 -0.08789062 C21.63992667 -0.10641749 27.73763227 0.15660583 34 1 C30.38948478 5.29358567 26.66214011 9.41871966 22.8125 13.5 C17.88481615 18.76667024 13.60645623 24.39295135 9.44067383 30.27539062 C8.31327475 31.86427255 7.1593293 33.43426374 6 35 C5.67 35 5.34 35 5 35 C4.28386807 30.65902154 3.57190832 26.31738543 2.86376953 21.97509766 C2.62239675 20.49867381 2.37989441 19.02243417 2.13623047 17.54638672 C1.78574683 15.42202671 1.43936018 13.29703261 1.09375 11.171875 C0.88427734 9.8940918 0.67480469 8.61630859 0.45898438 7.29980469 C0 4 0 4 0 0 Z " fill="#029368" transform="translate(831,364)"/>
<path d="M0 0 C1.25619141 0.00451172 2.51238281 0.00902344 3.80664062 0.01367188 C6.89197663 0.02540319 9.97721316 0.041819 13.0625 0.0625 C13.42937996 7.47347526 12.03519412 14.31843704 10.5625 21.5625 C10.20478516 23.36847656 10.20478516 23.36847656 9.83984375 25.2109375 C9.25414191 28.16287475 8.66152793 31.11324335 8.0625 34.0625 C7.49144531 33.33675781 6.92039062 32.61101562 6.33203125 31.86328125 C4.21083821 29.24556109 2.01656791 26.74201694 -0.25 24.25 C-3.01805855 21.19745909 -5.75431773 18.12725206 -8.4375 15 C-11.83566749 11.08211278 -15.4996936 7.46357033 -19.21484375 3.84765625 C-20.9375 2.0625 -20.9375 2.0625 -20.9375 1.0625 C-13.98535719 -0.24941997 -7.05305097 -0.04808058 0 0 Z " fill="#039367" transform="translate(1154.9375,360.9375)"/>
<path d="M0 0 C2 1 2 1 2.94555664 3.20556641 C3.26387451 4.16124512 3.58219238 5.11692383 3.91015625 6.1015625 C4.26013672 7.14957031 4.61011719 8.19757812 4.97070312 9.27734375 C5.33099609 10.38207031 5.69128906 11.48679687 6.0625 12.625 C6.42666016 13.70652344 6.79082031 14.78804687 7.16601562 15.90234375 C8.93954876 21.2721169 10.47490021 26.36123608 11 32 C-11.0836398 38.21479481 -11.0836398 38.21479481 -21 38 C-18.23715857 32.85952099 -15.30619853 27.87082588 -12.1875 22.9375 C-7.59246285 15.55043075 -3.77873606 7.82881752 0 0 Z " fill="#029B6B" transform="translate(1181,592)"/>
<path d="M0 0 C2.15231048 2.7362586 3.85269139 5.45561798 5.41796875 8.5625 C5.86422607 9.43688721 6.3104834 10.31127441 6.77026367 11.2121582 C7.23795166 12.132146 7.70563965 13.05213379 8.1875 14 C12.33076427 22.0492369 16.69024701 29.65154528 22 37 C19.10377727 38.44811136 17.20026965 37.64042205 14.0390625 37.0390625 C12.84539063 36.81476562 11.65171875 36.59046875 10.421875 36.359375 C9.16890625 36.11703125 7.9159375 35.8746875 6.625 35.625 C5.37976563 35.39039063 4.13453125 35.15578125 2.8515625 34.9140625 C-7.07607378 33.03123493 -7.07607378 33.03123493 -11 32 C-9.59477385 24.59553915 -7.19257123 17.91539124 -4.375 10.9375 C-3.95476563 9.88111328 -3.53453125 8.82472656 -3.1015625 7.73632812 C-2.07373243 5.15507306 -1.03978554 2.57645691 0 0 Z " fill="#04996B" transform="translate(819,591)"/>
<path d="M0 0 C7.11507003 -0.23545216 13.58906002 0.63392572 20.5625 2 C21.57119141 2.19078125 22.57988281 2.3815625 23.61914062 2.578125 C26.08091515 3.04481211 28.54101164 3.51888663 31 4 C28.96888407 11.839738 25.88670773 18.87512316 22.3125 26.125 C21.80138672 27.176875 21.29027344 28.22875 20.76367188 29.3125 C19.51574535 31.87833023 18.26112164 34.44063668 17 37 C15.08351265 34.12526897 13.86117755 31.48273163 12.5390625 28.30078125 C12.06726562 27.17349609 11.59546875 26.04621094 11.109375 24.88476562 C10.61953125 23.70591797 10.1296875 22.52707031 9.625 21.3125 C6.62158514 14.08904635 3.61246747 6.9424434 0 0 Z " fill="#029669" transform="translate(1172,410)"/>
<path d="M0 0 C-0.56847656 1.17433594 -1.13695312 2.34867187 -1.72265625 3.55859375 C-6.85549811 14.23593116 -11.61729192 24.99390672 -16 36 C-20.17568514 31.39603946 -22.56720611 26.13014354 -25.1875 20.5625 C-25.86329102 19.1693457 -25.86329102 19.1693457 -26.55273438 17.74804688 C-28.72249086 13.17757032 -30.56472687 9.11232562 -31 4 C-27.52334554 3.31977517 -24.04335552 2.65835989 -20.5625 2 C-19.58861328 1.80921875 -18.61472656 1.6184375 -17.61132812 1.421875 C-11.62817406 0.30128427 -6.0863887 -0.201411 0 0 Z " fill="#049569" transform="translate(829,412)"/>
<path d="M0 0 C2.17972114 3.26958171 2.24800193 4.21558238 2.23046875 8 C2.22853516 8.969375 2.22660156 9.93875 2.22460938 10.9375 C2.20624023 12.4534375 2.20624023 12.4534375 2.1875 14 C2.18685547 15.010625 2.18621094 16.02125 2.18554688 17.0625 C2.14057211 24.57828368 2.14057211 24.57828368 1 28 C-3.95 28 -8.9 28 -14 28 C-14.19371101 23.68769493 -14.38026936 19.37529192 -14.5625 15.0625 C-14.61857422 13.83080078 -14.67464844 12.59910156 -14.73242188 11.33007812 C-14.78076172 10.16025391 -14.82910156 8.99042969 -14.87890625 7.78515625 C-14.9260376 6.70113525 -14.97316895 5.61711426 -15.02172852 4.50024414 C-15 2 -15 2 -14 1 C-9.31113371 0.15600407 -4.7590961 -0.37326244 0 0 Z " fill="#02996B" transform="translate(620,664)"/>
<path d="M0 0 C2.16932124 0.0641466 4.33671723 0.20099682 6.5 0.375 C7.6859375 0.46523438 8.871875 0.55546875 10.09375 0.6484375 C13 1 13 1 14 2 C14.08737645 3.85369611 14.10698153 5.71067541 14.09765625 7.56640625 C14.09443359 8.69111328 14.09121094 9.81582031 14.08789062 10.97460938 C14.07951172 12.15861328 14.07113281 13.34261719 14.0625 14.5625 C14.05798828 15.75037109 14.05347656 16.93824219 14.04882812 18.16210938 C14.03699675 21.10812226 14.02051287 24.05403681 14 27 C11.15504507 28.42247747 8.6688204 28.20793601 5.5 28.25 C4.3346875 28.27578125 3.169375 28.3015625 1.96875 28.328125 C0.9890625 28.21984375 0.009375 28.1115625 -1 28 C-3.5304183 24.20437255 -3.29505701 21.14305886 -3.25 16.75 C-3.25773437 16.01136719 -3.26546875 15.27273438 -3.2734375 14.51171875 C-3.23365597 3.23365597 -3.23365597 3.23365597 0 0 Z " fill="#02986A" transform="translate(448,664)"/>
<path d="M0 0 C2.875 -0.125 2.875 -0.125 6 0 C6.66 0.66 7.32 1.32 8 2 C7.69017025 10.83014781 5.10867736 19.45740473 3 28 C-22.36893204 26.63106796 -22.36893204 26.63106796 -25 24 C-24.43181818 18.43181818 -24.43181818 18.43181818 -23 17 C-21.58155387 16.9834089 -20.16212393 17.0366946 -18.74609375 17.12109375 C-17.46508789 17.19360352 -17.46508789 17.19360352 -16.15820312 17.26757812 C-15.26037109 17.32365234 -14.36253906 17.37972656 -13.4375 17.4375 C-12.53580078 17.48970703 -11.63410156 17.54191406 -10.70507812 17.59570312 C-8.4697345 17.72580249 -6.2347911 17.86077936 -4 18 C-3.87882813 17.03578125 -3.75765625 16.0715625 -3.6328125 15.078125 C-3.46523438 13.81484375 -3.29765625 12.5515625 -3.125 11.25 C-2.96257813 9.99703125 -2.80015625 8.7440625 -2.6328125 7.453125 C-2.0941645 4.51383592 -1.51991159 2.52892853 0 0 Z " fill="#F1F7F6" transform="translate(866,315)"/>
<path d="M0 0 C1.010625 0.0825 2.02125 0.165 3.0625 0.25 C5.41623401 3.78060101 5.72028415 6.83595756 6.1875 10.9375 C6.27386719 11.63939453 6.36023437 12.34128906 6.44921875 13.06445312 C6.66076875 14.79211145 6.862586 16.5209566 7.0625 18.25 C8.7021875 18.0025 8.7021875 18.0025 10.375 17.75 C15.55289177 17.11086846 20.86204161 16.73345615 26.0625 17.25 C28.0625 19.25 28.0625 19.25 28.3125 21.75 C28.0625 24.25 28.0625 24.25 26.0625 26.25 C23.44873047 26.66064453 23.44873047 26.66064453 20.1796875 26.8828125 C18.42978516 27.00849609 18.42978516 27.00849609 16.64453125 27.13671875 C14.80955078 27.25466797 14.80955078 27.25466797 12.9375 27.375 C11.70644531 27.46136719 10.47539063 27.54773438 9.20703125 27.63671875 C6.159322 27.84934963 3.11127896 28.05340654 0.0625 28.25 C-0.808457 24.69139062 -1.65626925 21.12765408 -2.5 17.5625 C-2.74685547 16.55509766 -2.99371094 15.54769531 -3.24804688 14.50976562 C-3.47685547 13.53330078 -3.70566406 12.55683594 -3.94140625 11.55078125 C-4.15611572 10.65528564 -4.3708252 9.75979004 -4.59204102 8.8371582 C-4.96851719 6.01771086 -4.7013914 3.97809828 -3.9375 1.25 C-2.9375 0.25 -2.9375 0.25 0 0 Z " fill="#F2F8F6" transform="translate(1130.9375,312.75)"/>
<path d="M0 0 C6.42759473 1.56770603 10.82568959 4.84779622 14.5546875 10.25390625 C16.86058858 14.20781008 18 16.31483234 18 21 C11.19563327 19.34039836 6.26245948 15.44381966 2.625 9.5 C1.10115486 6.21787201 0.34948385 3.58220951 0 0 Z " fill="#069166" transform="translate(965,391)"/>
<path d="M0 0 C1.8125 1.125 1.8125 1.125 3 3 C3.54624158 6.66762206 3.47898298 8.3258758 1.3125 11.375 C-1 13 -1 13 -3.5 13.5625 C-6 13 -6 13 -8.375 10.8125 C-10 8 -10 8 -10 5.375 C-8.04039564 0.72093964 -4.93923506 -0.75988232 0 0 Z " fill="#F0F8F6" transform="translate(1126,700)"/>
<path d="M0 0 C1.8125 1.25 1.8125 1.25 3 3 C3.42317323 5.82115488 3.38718434 7.33950907 1.9375 9.8125 C-1.05550269 11.646921 -3.57816663 11.31107576 -7 11 C-9 9 -9 9 -9.375 5.5625 C-9 2 -9 2 -7.3125 0 C-4.35711914 -1.27800253 -3.01001617 -1.08051862 0 0 Z " fill="#F2F8F6" transform="translate(882,698)"/>
<path d="M0 0 C1.670625 0.37125 1.670625 0.37125 3.375 0.75 C4.75625018 3.51250036 4.56579306 5.69731099 4.375 8.75 C2.375 10.75 2.375 10.75 -1.0625 11.125 C-4.625 10.75 -4.625 10.75 -6.625 9.0625 C-7.89596428 6.1233951 -7.72443143 4.73417102 -6.625 1.75 C-3.625 -0.25 -3.625 -0.25 0 0 Z " fill="#EFF8F5" transform="translate(1178.625,651.25)"/>
<path d="M0 0 C1.875 1.0625 1.875 1.0625 3 3 C2.875 6.5625 2.875 6.5625 2 10 C-1 12 -1 12 -3.5625 11.75 C-6 11 -6 11 -8 9 C-8.333728 5.86295684 -8.52849028 3.83445834 -6.8125 1.125 C-4.34492892 -0.40659584 -2.85480169 -0.42822025 0 0 Z " fill="#F2F8F6" transform="translate(1223,437)"/>
<path d="M0 0 C2 3 2 3 1.6875 6.625 C1 10 1 10 0 11 C-3.4375 11.1875 -3.4375 11.1875 -7 11 C-9 9 -9 9 -9.3125 6.0625 C-9 3 -9 3 -7.875 1.125 C-5.13083761 -0.52149743 -3.1305429 -0.39964378 0 0 Z " fill="#F1F8F6" transform="translate(1235,509)"/>
<path d="M0 0 C1.8125 1.1875 1.8125 1.1875 3 3 C3.42674516 5.84496772 3.36066991 7.36352369 1.9375 9.875 C-1.17002199 11.67936761 -3.62799333 10.81177938 -7 10 C-8.39431504 7.21136993 -8.25660094 5.07921132 -8 2 C-4.76746204 -0.15502531 -3.74849077 -0.46856135 0 0 Z " fill="#F0F8F6" transform="translate(826,650)"/>
<path d="M0 0 C2.9375 0.875 2.9375 0.875 4.9375 3.875 C5.1875 6.4375 5.1875 6.4375 4.9375 8.875 C2.9375 10.875 2.9375 10.875 0 11.1875 C-3.0625 10.875 -3.0625 10.875 -4.9375 9.6875 C-6.46909584 7.21992892 -6.49072025 5.72980169 -6.0625 2.875 C-4.29035152 -0.0785808 -3.47140412 -0.14168996 0 0 Z " fill="#EFF8F5" transform="translate(1215.0625,582.125)"/>
<path d="M0 0 C3 0.25 3 0.25 5 2.25 C5.25 5.75 5.25 5.75 5 9.25 C4.34 9.91 3.68 10.57 3 11.25 C-3.57692308 10.67307692 -3.57692308 10.67307692 -5 9.25 C-5.1875 5.8125 -5.1875 5.8125 -5 2.25 C-3 0.25 -3 0.25 0 0 Z " fill="#F3F9F7" transform="translate(770,509.75)"/>
<path d="M0 0 C2 3 2 3 1.75 5.0625 C1 7 1 7 -1 9 C-4.1304173 9.33302312 -6.17898298 9.47671956 -8.9375 7.875 C-10 6 -10 6 -9.8125 2.875 C-9.544375 1.92625 -9.27625 0.9775 -9 0 C-5.85135005 -1.57432497 -3.35512575 -0.71895552 0 0 Z " fill="#F1F8F6" transform="translate(946,733)"/>
<path d="M0 0 C1.7325 0.1546875 1.7325 0.1546875 3.5 0.3125 C5.5 3.3125 5.5 3.3125 5.25 5.875 C4.5 8.3125 4.5 8.3125 2.5 10.3125 C-0.34602594 10.67737512 -1.8864306 10.71449375 -4.3125 9.125 C-5.90199375 6.6989306 -5.86487512 5.15852594 -5.5 2.3125 C-3.5 0.3125 -3.5 0.3125 0 0 Z " fill="#EFF7F5" transform="translate(780.5,439.6875)"/>
<path d="M0 0 C2 2 2 2 2.3125 4.9375 C2 8 2 8 0.8125 9.9375 C-1 11 -1 11 -3.5625 10.8125 C-6 10 -6 10 -8 8 C-8.36487512 5.15397406 -8.40199375 3.6135694 -6.8125 1.1875 C-4.3864306 -0.40199375 -2.84602594 -0.36487512 0 0 Z " fill="#EFF8F5" transform="translate(1056,732)"/>
<path d="M0 0 C2.9375 0.375 2.9375 0.375 4.9375 2.375 C5.1875 5.375 5.1875 5.375 4.9375 8.375 C4.2775 9.035 3.6175 9.695 2.9375 10.375 C-0.6875 10 -0.6875 10 -4.0625 9.375 C-5.25 7.125 -5.25 7.125 -6.0625 4.375 C-4.5898542 0.96950658 -3.6985314 0.4528814 0 0 Z " fill="#F3F8F7" transform="translate(786.0625,583.625)"/>
<path d="M0 0 C3 0.25 3 0.25 5 2.25 C5.36487512 5.09602594 5.40199375 6.6364306 3.8125 9.0625 C1.3864306 10.65199375 -0.15397406 10.61487512 -3 10.25 C-5 8.25 -5 8.25 -5.25 5.25 C-4.90584825 1.120179 -4.129821 0.34415175 0 0 Z " fill="#F2F8F7" transform="translate(1077,284.75)"/>
<path d="M0 0 C2.5625 0.3125 2.5625 0.3125 4.4375 1.4375 C5.5625 3.3125 5.5625 3.3125 5.3125 6.4375 C4.5625 9.3125 4.5625 9.3125 3.5625 10.3125 C0.625 10.5 0.625 10.5 -2.4375 10.3125 C-4.4375 8.3125 -4.4375 8.3125 -4.6875 5.3125 C-4.37675292 1.58353509 -3.7821044 0.48488518 0 0 Z " fill="#F1F8F6" transform="translate(922.4375,284.6875)"/>
<path d="M0 0 C2.375 0.6875 2.375 0.6875 3.375 1.6875 C3.5625 4.625 3.5625 4.625 3.375 7.6875 C1.375 9.6875 1.375 9.6875 -1.0625 10 C-3.625 9.6875 -3.625 9.6875 -5.5 8.5 C-6.625 6.6875 -6.625 6.6875 -6.5 4.125 C-5.233732 0.59753914 -3.73919545 -0.44514232 0 0 Z " fill="#EEF7F5" transform="translate(808.625,380.3125)"/>
<path d="M0 0 C0.66 0.66 1.32 1.32 2 2 C2.99 2 3.98 2 5 2 C4.84482717 9.13795017 1.25790537 13.47472854 -3 19 C-4.67641098 14.90913548 -3.2409319 11.28488982 -2.0625 7.25 C-1.86720703 6.55261719 -1.67191406 5.85523438 -1.47070312 5.13671875 C-0.9891754 3.42201027 -0.49574843 1.71065123 0 0 Z " fill="#049263" transform="translate(1013,520)"/>
<path d="M0 0 C2.9375 0.1875 2.9375 0.1875 3.9375 1.1875 C4.125 4.125 4.125 4.125 3.9375 7.1875 C1.9375 9.1875 1.9375 9.1875 -0.5625 9.4375 C-3.0625 9.1875 -3.0625 9.1875 -5.0625 7.1875 C-5.3125 4.6875 -5.3125 4.6875 -5.0625 2.1875 C-3.0625 0.1875 -3.0625 0.1875 0 0 Z " fill="#F3FAF8" transform="translate(1194.0625,378.8125)"/>
<path d="M0 0 C8.18608335 6.61853547 15.11743759 14.27103643 21 23 C20.67 23.66 20.34 24.32 20 25 C19.443125 24.31035156 18.88625 23.62070312 18.3125 22.91015625 C10.73437286 12.22647216 10.73437286 12.22647216 1 4 C1 5.98 1 7.96 1 10 C0.67 10 0.34 10 0 10 C0 6.7 0 3.4 0 0 Z " fill="#0C8B57" transform="translate(1198,523)"/>
<path d="M0 0 C1.37478516 0.01740234 1.37478516 0.01740234 2.77734375 0.03515625 C3.69644531 0.04417969 4.61554687 0.05320312 5.5625 0.0625 C6.27277344 0.07410156 6.98304688 0.08570313 7.71484375 0.09765625 C4.25269726 2.14929862 3.1209514 2.09765625 -1.28515625 2.09765625 C-1.28515625 10.01765625 -1.28515625 17.93765625 -1.28515625 26.09765625 C-1.61515625 26.09765625 -1.94515625 26.09765625 -2.28515625 26.09765625 C-2.4809954 21.9521721 -2.66543467 17.80625955 -2.84765625 13.66015625 C-2.90373047 12.47615234 -2.95980469 11.29214844 -3.01757812 10.07226562 C-3.06591797 8.94755859 -3.11425781 7.82285156 -3.1640625 6.6640625 C-3.21119385 5.62193604 -3.2583252 4.57980957 -3.30688477 3.50610352 C-3.27818581 0.32503441 -3.1681003 0.1353889 0 0 Z " fill="#048753" transform="translate(608.28515625,664.90234375)"/>
<path d="M0 0 C3.43605181 1.48229451 5.68701591 3.4295174 8.328125 6.0625 C9.52695312 7.25746094 9.52695312 7.25746094 10.75 8.4765625 C11.575 9.30929687 12.4 10.14203125 13.25 11 C14.09046875 11.83273437 14.9309375 12.66546875 15.796875 13.5234375 C16.5909375 14.32007813 17.385 15.11671875 18.203125 15.9375 C18.93176758 16.66839844 19.66041016 17.39929688 20.41113281 18.15234375 C22 20 22 20 22 22 C18.72581132 20.90860377 18.16451854 20.27089683 16.0625 17.6875 C12.25891337 13.17893826 8.12712462 9.06869109 3.91235352 4.94995117 C2.5912715 3.6503228 1.2932998 2.32727812 0 1 C0 0.67 0 0.34 0 0 Z " fill="#058554" transform="translate(950,507)"/>
<path d="M0 0 C1.41623216 -0.05447047 2.83308191 -0.09300508 4.25 -0.125 C5.03890625 -0.14820313 5.8278125 -0.17140625 6.640625 -0.1953125 C9.20731941 0.0171622 10.7916067 0.71345895 13 2 C11.02 2 9.04 2 7 2 C6.67 4.64 6.34 7.28 6 10 C3.25722422 6.80009492 1.3697164 3.99500618 0 0 Z " fill="#008957" transform="translate(1172,410)"/>
<path d="M0 0 C2.41445371 3.02939501 3.46292236 5.13304097 4 9 C3.01 8.67 2.02 8.34 1 8 C0.01 8.33 -0.98 8.66 -2 9 C-3.22969878 12.51190809 -3.22969878 12.51190809 -4 16 C-5.35304209 11.94087374 -4.15216503 10.22850409 -2.5625 6.3125 C-2.08941406 5.13300781 -1.61632812 3.95351563 -1.12890625 2.73828125 C-0.75636719 1.83464844 -0.38382813 0.93101562 0 0 Z " fill="#0B8E5E" transform="translate(819,591)"/>
<path d="M0 0 C0.33 0 0.66 0 1 0 C1 6.27 1 12.54 1 19 C-2.90432869 17.04783565 -5.03839944 15.12613393 -8 12 C-3.125 13.875 -3.125 13.875 -2 15 C-1.34 10.05 -0.68 5.1 0 0 Z " fill="#0D8B5A" transform="translate(803,488)"/>
<path d="M0 0 C2.97 0.33 5.94 0.66 9 1 C9.33 1.99 9.66 2.98 10 4 C9.01 4.495 9.01 4.495 8 5 C7.34 6.32 6.68 7.64 6 9 C4.02 6.03 2.04 3.06 0 0 Z " fill="#0D9565" transform="translate(956,706)"/>
<path d="M0 0 C3.54243452 1.36591169 6.92627929 2.90931484 10.3125 4.625 C11.63701172 5.29402344 11.63701172 5.29402344 12.98828125 5.9765625 C13.65214844 6.31429687 14.31601562 6.65203125 15 7 C10.82412255 8.39195915 8.86525224 6.82323219 5 5 C4.34 6.65 3.68 8.3 3 10 C2.67 10 2.34 10 2 10 C1.34 6.7 0.68 3.4 0 0 Z " fill="#0B8E5E" transform="translate(904,685)"/>
<path d="M0 0 C0.33 0.66 0.66 1.32 1 2 C0.10333658 4.24310013 -0.89146683 6.44754321 -1.9375 8.625 C-2.50339844 9.81351562 -3.06929687 11.00203125 -3.65234375 12.2265625 C-4.09707031 13.14179688 -4.54179688 14.05703125 -5 15 C-7.54845496 12.54460659 -9.3743846 10.16995003 -11 7 C-10.67 6.34 -10.34 5.68 -10 5 C-9.01 6.485 -9.01 6.485 -8 8 C-6.11341126 8.03525132 -6.11341126 8.03525132 -4 7 C-2.40498463 4.75835678 -1.25456982 2.46433357 0 0 Z " fill="#078657" transform="translate(997,386)"/>
<path d="M0 0 C5.17155776 0.41962201 7.69235536 4.76010575 10.87109375 8.41015625 C13.14881326 11.18103337 15.1449609 13.93515279 17 17 C13.19163075 15.45747973 11.01882086 13.10878844 8.3125 10.0625 C7.52488281 9.18722656 6.73726562 8.31195313 5.92578125 7.41015625 C4 5 4 5 3 2 C0.98491642 1.26676204 0.98491642 1.26676204 -1 1 C-0.67 0.67 -0.34 0.34 0 0 Z " fill="#EDF7F4" transform="translate(998,272)"/>
<path d="M0 0 C0 3 0 3 -1.93359375 5.05078125 C-3.59754709 6.55379058 -5.26420186 8.05381482 -6.93359375 9.55078125 C-9.34554011 12.40955321 -9.70801523 14.32099191 -10 18 C-11.32 16.68 -12.64 15.36 -14 14 C-9.38 9.38 -4.76 4.76 0 0 Z " fill="#088C58" transform="translate(1220,501)"/>
<path d="M0 0 C4.70588235 0.70588235 4.70588235 0.70588235 6 2 C6.1875 4.4375 6.1875 4.4375 6 7 C4 9 4 9 0.375 9.125 C-0.73875 9.08375 -1.8525 9.0425 -3 9 C-2.67 8.34 -2.34 7.68 -2 7 C0.0625 6.375 0.0625 6.375 2 6 C2 5.34 2 4.68 2 4 C2.66 4 3.32 4 4 4 C3.67 3.34 3.34 2.68 3 2 C0.97536745 1.34786708 0.97536745 1.34786708 -1 1 C-0.67 0.67 -0.34 0.34 0 0 Z " fill="#F9FBFB" transform="translate(1153,330)"/>
<path d="M0 0 C1.27875 0.144375 2.5575 0.28875 3.875 0.4375 C4.90625 0.623125 5.9375 0.80875 7 1 C7.33 1.66 7.66 2.32 8 3 C5.74943278 2.88566637 3.49953326 2.75813564 1.25 2.625 C-0.00296875 2.55539062 -1.2559375 2.48578125 -2.546875 2.4140625 C-5.60998121 2.04676696 -7.41974266 1.60288714 -10 0 C-6.23845262 -1.25384913 -3.89726861 -0.64954477 0 0 Z " fill="#E2F4F0" transform="translate(1034,255)"/>
<path d="M0 0 C5.28 0 10.56 0 16 0 C10.375 6.75 10.375 6.75 7 9 C8.20381448 6.50638429 9.45428722 4.31856917 11 2 C7.37 1.67 3.74 1.34 0 1 C0 0.67 0 0.34 0 0 Z " fill="#058152" transform="translate(849,365)"/>
<path d="M0 0 C0.33 0 0.66 0 1 0 C1.19401633 1.81181405 1.38004375 3.62448532 1.5625 5.4375 C1.66691406 6.44683594 1.77132812 7.45617187 1.87890625 8.49609375 C1.93884766 9.73552734 1.93884766 9.73552734 2 11 C1.67 11.33 1.34 11.66 1 12 C0.76636119 13.84891946 0.58696365 15.70488031 0.4375 17.5625 C0.35371094 18.57441406 0.26992188 19.58632813 0.18359375 20.62890625 C0.12300781 21.41136719 0.06242188 22.19382812 0 23 C-0.33 23 -0.66 23 -1 23 C-1.02911321 19.9166866 -1.04683682 16.83340875 -1.0625 13.75 C-1.07087891 12.87730469 -1.07925781 12.00460937 -1.08789062 11.10546875 C-1.09111328 10.26113281 -1.09433594 9.41679688 -1.09765625 8.546875 C-1.10551147 7.38430176 -1.10551147 7.38430176 -1.11352539 6.19824219 C-1.00036998 4.00716402 -0.60552448 2.10362139 0 0 Z " fill="#FBFDFC" transform="translate(843,640)"/>
<path d="M0 0 C2.99324263 1.0975223 3.84610901 1.67682892 5.25 4.625 C5.4975 5.40875 5.745 6.1925 6 7 C3.6568787 6.74438677 1.32156597 6.40729228 -1 6 C-1.33 5.34 -1.66 4.68 -2 4 C-1.0625 1.875 -1.0625 1.875 0 0 Z " fill="#098D60" transform="translate(1050,311)"/>
<path d="M0 0 C2.67479093 2.34523216 3.88166223 4.58288792 5.1875 7.875 C5.53167969 8.71804688 5.87585938 9.56109375 6.23046875 10.4296875 C7.02757207 13.09209351 7.14355008 15.2378985 7 18 C4.38056097 15.38056097 3.55802162 12.42526027 2.375 9 C2.14554688 8.35804688 1.91609375 7.71609375 1.6796875 7.0546875 C0 2.27557664 0 2.27557664 0 0 Z " fill="#118B5E" transform="translate(615,392)"/>
<path d="M0 0 C0.66 0.33 1.32 0.66 2 1 C2.6328125 3.06640625 2.6328125 3.06640625 3.125 5.5625 C3.29257813 6.38878906 3.46015625 7.21507812 3.6328125 8.06640625 C3.75398438 8.70449219 3.87515625 9.34257813 4 10 C3.34 9.67 2.68 9.34 2 9 C1.375 6.9375 1.375 6.9375 1 5 C-0.32 6.98 -1.64 8.96 -3 11 C-3.33 10.34 -3.66 9.68 -4 9 C-3.22265625 6.8359375 -3.22265625 6.8359375 -2.0625 4.375 C-1.68222656 3.55773437 -1.30195312 2.74046875 -0.91015625 1.8984375 C-0.60980469 1.27195312 -0.30945312 0.64546875 0 0 Z " fill="#118F5D" transform="translate(1181,592)"/>
<path d="M0 0 C2.62187494 1.04874998 3.79371361 1.64931313 5.25 4.125 C5.4975 4.74375 5.745 5.3625 6 6 C4.72125 6.061875 3.4425 6.12375 2.125 6.1875 C1.40570312 6.22230469 0.68640625 6.25710938 -0.0546875 6.29296875 C-0.69664062 6.19628906 -1.33859375 6.09960938 -2 6 C-2.66 5.01 -3.32 4.02 -4 3 C-3.34 2.67 -2.68 2.34 -2 2 C-1.34 2.33 -0.68 2.66 0 3 C0 2.01 0 1.02 0 0 Z " fill="#0B9D73" transform="translate(964,523)"/>
<path d="M0 0 C1.09658936 3.28976808 0.79953138 4.71303767 0 8 C-0.66 8 -1.32 8 -2 8 C-2.99 10.97 -3.98 13.94 -5 17 C-6.34581972 12.96254085 -5.19157055 11.27844375 -3.625 7.375 C-3.16351562 6.20710938 -2.70203125 5.03921875 -2.2265625 3.8359375 C-1 1 -1 1 0 0 Z " fill="#068C59" transform="translate(1214,414)"/>
<path d="M0 0 C0.66 0.33 1.32 0.66 2 1 C-1.3 4.63 -4.6 8.26 -8 12 C-8.99 11.67 -9.98 11.34 -11 11 C-7.37 7.37 -3.74 3.74 0 0 Z " fill="#028555" transform="translate(878,368)"/>
<path d="M0 0 C2.29225435 0.11371497 4.58382388 0.24130964 6.875 0.375 C8.15117188 0.44460938 9.42734375 0.51421875 10.7421875 0.5859375 C14 1 14 1 16 3 C11.89517207 4.13314263 9.24049263 3.78328091 5.1875 2.5625 C3.72376953 2.13130859 3.72376953 2.13130859 2.23046875 1.69140625 C1.49441406 1.46324219 0.75835938 1.23507812 0 1 C0 0.67 0 0.34 0 0 Z " fill="#108E64" transform="translate(583,278)"/>
<path d="M0 0 C3.40312738 1.05875074 6.01353231 2.00902154 9 4 C9.33 3.01 9.66 2.02 10 1 C11.0625 2.8125 11.0625 2.8125 12 5 C11.67 5.99 11.34 6.98 11 8 C9.16399255 6.85845641 7.33125195 5.71165684 5.5 4.5625 C4.4790625 3.92441406 3.458125 3.28632812 2.40625 2.62890625 C1.6121875 2.09136719 0.818125 1.55382812 0 1 C0 0.67 0 0.34 0 0 Z " fill="#108C5D" transform="translate(799,560)"/>
<path d="M0 0 C0 4.29 0 8.58 0 13 C-0.33 13 -0.66 13 -1 13 C-1.33 10.36 -1.66 7.72 -2 5 C-4.475 6.485 -4.475 6.485 -7 8 C-5.84316054 5.30070793 -3.38550714 0 0 0 Z " fill="#028350" transform="translate(804,523)"/>
<path d="M0 0 C6.6 0 13.2 0 20 0 C20 0.33 20 0.66 20 1 C14.39 1 8.78 1 3 1 C3 1.66 3 2.32 3 3 C2.01 3 1.02 3 0 3 C0 2.01 0 1.02 0 0 Z " fill="#01A375" transform="translate(996,712)"/>
<path d="M0 0 C1.42944945 2.35438733 2.08661261 3.48032433 1.625 6.25 C1.41875 6.8275 1.2125 7.405 1 8 C0.34 8 -0.32 8 -1 8 C-1 9.32 -1 10.64 -1 12 C-1.66 12 -2.32 12 -3 12 C-2.69230293 10.18667846 -2.37870936 8.37435655 -2.0625 6.5625 C-1.80146484 5.04849609 -1.80146484 5.04849609 -1.53515625 3.50390625 C-1 1 -1 1 0 0 Z " fill="#E2F3EF" transform="translate(1184,549)"/>
<path d="M0 0 C0.66 0.33 1.32 0.66 2 1 C-3.94 6.445 -3.94 6.445 -10 12 C-10 9 -10 9 -7.8125 6.73828125 C-6.884375 5.93777344 -5.95625 5.13726562 -5 4.3125 C-4.071875 3.50425781 -3.14375 2.69601562 -2.1875 1.86328125 C-1.1046875 0.94095703 -1.1046875 0.94095703 0 0 Z " fill="#0D8A59" transform="translate(1049,460)"/>
<path d="M0 0 C1 2 1 2 0.29296875 4.56640625 C-0.07183594 5.55511719 -0.43664063 6.54382813 -0.8125 7.5625 C-1.16957031 8.55378906 -1.52664063 9.54507812 -1.89453125 10.56640625 C-3 13 -3 13 -5 14 C-4.53411505 8.29290936 -3.06242216 4.84060277 0 0 Z " fill="#079060" transform="translate(1119,490)"/>
<path d="M0 0 C0.33 0.66 0.66 1.32 1 2 C-0.8130666 6.63339243 -2.94775971 9.1524798 -7 12 C-5.44298069 7.32894208 -2.91552627 3.91294315 0 0 Z " fill="#05945D" transform="translate(1224,656)"/>
<path d="M0 0 C2.49505962 2.49505962 2.35948376 3.67328888 2.625 7.125 C2.69976563 8.03507813 2.77453125 8.94515625 2.8515625 9.8828125 C2.92503906 10.93082031 2.92503906 10.93082031 3 12 C2.01 11.67 1.02 11.34 0 11 C0 7.37 0 3.74 0 0 Z " fill="#E6F4F1" transform="translate(751,544)"/>
<path d="M0 0 C0.66 0.33 1.32 0.66 2 1 C1.01 1 0.02 1 -1 1 C-0.67 0.67 -0.34 0.34 0 0 Z M-3 2 C-2.34 2.33 -1.68 2.66 -1 3 C-3.64 5.97 -6.28 8.94 -9 12 C-9.66 11.34 -10.32 10.68 -11 10 C-8.36 7.36 -5.72 4.72 -3 2 Z " fill="#D9F0EB" transform="translate(1039,454)"/>
<path d="M0 0 C0.33 0.66 0.66 1.32 1 2 C0.39351421 3.68949614 -0.27840576 5.35636866 -1 7 C-1.33 7.99 -1.66 8.98 -2 10 C-2.99 10.33 -3.98 10.66 -5 11 C-4.46884894 6.48521602 -2.63379708 3.65333143 0 0 Z " fill="#0A8A5E" transform="translate(437,400)"/>
<path d="M0 0 C0.66 0.33 1.32 0.66 2 1 C0.90653119 2.34212062 -0.2001575 3.67347975 -1.3125 5 C-2.23482422 6.11375 -2.23482422 6.11375 -3.17578125 7.25 C-5 9 -5 9 -8 9 C-5.36 6.03 -2.72 3.06 0 0 Z " fill="#078A5A" transform="translate(813,340)"/>
<path d="M0 0 C0.99 0.99 1.98 1.98 3 3 C1.625 4.5 1.625 4.5 0 6 C-0.66 6 -1.32 6 -2 6 C-2.66 7.65 -3.32 9.3 -4 11 C-4.33 10.34 -4.66 9.68 -5 9 C-4.00390625 6.8359375 -4.00390625 6.8359375 -2.5625 4.375 C-2.08941406 3.55773437 -1.61632812 2.74046875 -1.12890625 1.8984375 C-0.75636719 1.27195312 -0.38382813 0.64546875 0 0 Z " fill="#0A8659" transform="translate(959,287)"/>
<path d="M0 0 C1.65 0.33 3.3 0.66 5 1 C3.35 3.64 1.7 6.28 0 9 C-0.95904856 5.16380575 -0.91892116 3.67568464 0 0 Z " fill="#21996C" transform="translate(1010,530)"/>
<path d="M0 0 C-0.66 2.97 -1.32 5.94 -2 9 C-2.33 9 -2.66 9 -3 9 C-3 7.35 -3 5.7 -3 4 C-4.65 4.66 -6.3 5.32 -8 6 C-6.72879117 2.18637351 -4.19078006 0 0 0 Z " fill="#0B8856" transform="translate(809,465)"/>
<path d="M0 0 C4.97209562 1.76429199 9.43438061 4.3939166 14 7 C13.01 7.495 13.01 7.495 12 8 C9.1796875 6.78515625 9.1796875 6.78515625 5.875 5.0625 C4.77929688 4.49660156 3.68359375 3.93070312 2.5546875 3.34765625 C1.71164062 2.90292969 0.86859375 2.45820313 0 2 C0 1.34 0 0.68 0 0 Z " fill="#188F5F" transform="translate(1193,465)"/>
<path d="M0 0 C0.33 0.66 0.66 1.32 1 2 C0.0126546 3.67419438 -0.98812105 5.34051852 -2 7 C-2 7.99 -2 8.98 -2 10 C-3.98 10.99 -3.98 10.99 -6 12 C-4.68139111 7.38486888 -2.78644563 3.90102388 0 0 Z " fill="#058957" transform="translate(787,376)"/>
<path d="M0 0 C0.66 0.33 1.32 0.66 2 1 C-0.97 3.64 -3.94 6.28 -7 9 C-7.66 8.01 -8.32 7.02 -9 6 C-6.03 4.02 -3.06 2.04 0 0 Z " fill="#0C9161" transform="translate(653,699)"/>
<path d="M0 0 C0.66 0.33 1.32 0.66 2 1 C1.01 1.66 0.02 2.32 -1 3 C-0.67 2.01 -0.34 1.02 0 0 Z M-2 3 C-2 6.10551666 -2.5393715 7.35261084 -4 10 C-4.99 10 -5.98 10 -7 10 C-5.35 7.69 -3.7 5.38 -2 3 Z " fill="#E8F7F3" transform="translate(1204,660)"/>
<path d="M0 0 C0.66 0.99 1.32 1.98 2 3 C0.68 4.32 -0.64 5.64 -2 7 C-2.99 6.67 -3.98 6.34 -5 6 C-3.35 4.02 -1.7 2.04 0 0 Z " fill="#059462" transform="translate(1045,718)"/>
<path d="M0 0 C1.96301592 3.50538557 2.95902388 7.13351728 4 11 C3.34 11 2.68 11 2 11 C-1.07692308 5.70769231 -1.07692308 5.70769231 -0.6875 2.125 C-0.460625 1.42375 -0.23375 0.7225 0 0 Z " fill="#E6F5F2" transform="translate(822,566)"/>
<path d="M0 0 C2.475 0.99 2.475 0.99 5 2 C4.01 2.495 4.01 2.495 3 3 C3.66 5.64 4.32 8.28 5 11 C1.19015156 8.22920113 0.93159248 4.37131855 0 0 Z " fill="#0B8457" transform="translate(965,391)"/>
<path d="M0 0 C0.66 0 1.32 0 2 0 C0.55746343 3.36591866 -1.33264727 5.51047079 -4 8 C-4.66 7.67 -5.32 7.34 -6 7 C-5.04882866 5.8274869 -4.08882991 4.66212985 -3.125 3.5 C-2.59132813 2.8503125 -2.05765625 2.200625 -1.5078125 1.53125 C-0.76144531 0.77328125 -0.76144531 0.77328125 0 0 Z " fill="#05875A" transform="translate(449,383)"/>
<path d="M0 0 C0.66 0.33 1.32 0.66 2 1 C-1.96 4.465 -1.96 4.465 -6 8 C-6.66 7.67 -7.32 7.34 -8 7 C-5.36 4.69 -2.72 2.38 0 0 Z " fill="#088D58" transform="translate(1129,662)"/>
<path d="M0 0 C2.97 0.33 5.94 0.66 9 1 C5.91111478 3.05925681 5.29064073 3.2390374 1.8125 3.125 C-0.0746875 3.063125 -0.0746875 3.063125 -2 3 C-1.34 2.01 -0.68 1.02 0 0 Z " fill="#178E5E" transform="translate(1018,544)"/>
<path d="M0 0 C2.97 0 5.94 0 9 0 C8.01 0.66 7.02 1.32 6 2 C4.66209359 2.99387334 3.32781878 3.9926892 2 5 C1.34 3.35 0.68 1.7 0 0 Z " fill="#179267" transform="translate(1172,410)"/>
<path d="M0 0 C0.33 0 0.66 0 1 0 C1.33 3.3 1.66 6.6 2 10 C1.01 9.67 0.02 9.34 -1 9 C-1.125 2.25 -1.125 2.25 0 0 Z " fill="#E5F3EF" transform="translate(1117,329)"/>
<path d="M0 0 C2.475 0.99 2.475 0.99 5 2 C3.9375 3.5 3.9375 3.5 2 5 C-1.6875 5.1875 -1.6875 5.1875 -5 5 C-3.625 3.5 -3.625 3.5 -2 2 C-1.34 2 -0.68 2 0 2 C0 1.34 0 0.68 0 0 Z " fill="#179F76" transform="translate(1014,306)"/>
<path d="M0 0 C-0.33 0.99 -0.66 1.98 -1 3 C-3.31 3.33 -5.62 3.66 -8 4 C-8 3.01 -8 2.02 -8 1 C-5.10765685 0.17361624 -3.11257569 0 0 0 Z " fill="#E4F3EF" transform="translate(951,246)"/>
<path d="M0 0 C0.33 0.66 0.66 1.32 1 2 C3.52733235 2.65555119 3.52733235 2.65555119 6 3 C2.86501708 4.85776765 0.62528568 5.20140476 -3 5 C-2.01 3.35 -1.02 1.7 0 0 Z " fill="#08874E" transform="translate(1163,625)"/>
<path d="M0 0 C0.66 0.66 1.32 1.32 2 2 C-0.75 5.875 -0.75 5.875 -3 7 C-3.66 6.34 -4.32 5.68 -5 5 C-3.35 3.35 -1.7 1.7 0 0 Z " fill="#E6F4F0" transform="translate(1089,516)"/>
<path d="M0 0 C0.33 0 0.66 0 1 0 C1.33 2.97 1.66 5.94 2 9 C0.68 8.01 -0.64 7.02 -2 6 C-1.49396008 3.83125748 -1.00016187 2.00032373 0 0 Z " fill="#209369" transform="translate(977,510)"/>
<path d="M0 0 C-0.25561323 2.3431213 -0.59270772 4.67843403 -1 7 C-1.99 7.495 -1.99 7.495 -3 8 C-2.67 6.02 -2.34 4.04 -2 2 C-3.32 1.67 -4.64 1.34 -6 1 C-4 0 -4 0 0 0 Z " fill="#098556" transform="translate(1046,365)"/>
<path d="M0 0 C0.66 0.33 1.32 0.66 2 1 C1.01 1.66 0.02 2.32 -1 3 C-0.67 2.01 -0.34 1.02 0 0 Z M-3 4 C-2.34 4.66 -1.68 5.32 -1 6 C-2.32 6.99 -3.64 7.98 -5 9 C-5 6 -5 6 -3 4 Z " fill="#E7F4F1" transform="translate(788,524)"/>
<path d="M0 0 C1.4606285 2.64738916 2 3.89448334 2 7 C1.34 7 0.68 7 0 7 C-0.33 7.99 -0.66 8.98 -1 10 C-2.27351308 7.45297384 -1.80191925 6.5717055 -1.0625 3.875 C-0.86785156 3.15054687 -0.67320313 2.42609375 -0.47265625 1.6796875 C-0.31667969 1.12539063 -0.16070313 0.57109375 0 0 Z " fill="#DDF2EC" transform="translate(1112,470)"/>
<path d="M0 0 C3.26460973 1.80412643 4.88929795 2.83394693 7 6 C6.01 6.495 6.01 6.495 5 7 C3.5 5.625 3.5 5.625 2 4 C2 3.34 2 2.68 2 2 C1.34 2 0.68 2 0 2 C0 1.34 0 0.68 0 0 Z " fill="#179469" transform="translate(949,456)"/>
<path d="M0 0 C2.91387197 0.2913872 3.82565583 0.79452294 5.75 3.0625 C6.1625 3.701875 6.575 4.34125 7 5 C6.01 5 5.02 5 4 5 C3.67 4.01 3.34 3.02 3 2 C0.98491642 1.26676204 0.98491642 1.26676204 -1 1 C-0.67 0.67 -0.34 0.34 0 0 Z " fill="#DAEFEA" transform="translate(998,272)"/>
</svg>
